<svg xmlns="http://www.w3.org/2000/svg"
 xmlns:xlink="http://www.w3.org/1999/xlink"
 width="1500px" height="12px"  viewBox="0 0 1500 12">
<path fill-rule="evenodd" fill-opacity="0.1"  fill="#000"
 d="M950.99994,1.9999924 C950.99994,1.9999924 949.0,1.9999924 949.0,1.9999924 C949.0,1.9999924 949.0,9.999962 949.0,9.999962 C949.0,9.999962 945.99994,9.999962 945.99994,9.999962 C945.99994,9.999962 945.99994,3.9999084 945.99994,3.9999084 C945.99994,3.9999084 944.99994,3.9999084 944.99994,3.9999084 C944.99994,3.9999084 944.99994,9.999962 944.99994,9.999962 C944.99994,9.999962 940.99994,9.999962 940.99994,9.999962 C940.99994,9.999962 940.99994,3.9999084 940.99994,3.9999084 C940.99994,3.9999084 939.99994,3.9999084 939.99994,3.9999084 C939.99994,3.9999084 939.99994,9.999962 939.99994,9.999962 C939.99994,9.999962 935.99994,9.999962 935.99994,9.999962 C935.99994,9.999962 935.99994,3.9999084 935.99994,3.9999084 C935.99994,3.9999084 934.99994,3.9999084 934.99994,3.9999084 C934.99994,3.9999084 934.99994,9.999962 934.99994,9.999962 C934.99994,9.999962 930.99994,9.999962 930.99994,9.999962 C930.99994,9.999962 930.99994,3.9999084 930.99994,3.9999084 C930.99994,3.9999084 929.99994,3.9999084 929.99994,3.9999084 C929.99994,3.9999084 929.99994,9.999962 929.99994,9.999962 C929.99994,9.999962 926.99994,9.999962 926.99994,9.999962 C926.99994,9.999962 926.99994,1.9999924 926.99994,1.9999924 C926.99994,1.9999924 924.99994,1.9999924 924.99994,1.9999924 C924.99994,1.9999924 924.99994,9.999962 924.99994,9.999962 C924.99994,9.999962 920.99994,9.999962 920.99994,9.999962 C920.99994,9.999962 920.99994,3.9999084 920.99994,3.9999084 C920.99994,3.9999084 919.99994,3.9999084 919.99994,3.9999084 C919.99994,3.9999084 919.99994,9.999962 919.99994,9.999962 C919.99994,9.999962 915.99994,9.999962 915.99994,9.999962 C915.99994,9.999962 915.99994,3.9999084 915.99994,3.9999084 C915.99994,3.9999084 914.99994,3.9999084 914.99994,3.9999084 C914.99994,3.9999084 914.99994,9.999962 914.99994,9.999962 C914.99994,9.999962 910.99994,9.999962 910.99994,9.999962 C910.99994,9.999962 910.99994,3.9999084 910.99994,3.9999084 C910.99994,3.9999084 909.99994,3.9999084 909.99994,3.9999084 C909.99994,3.9999084 909.99994,9.999962 909.99994,9.999962 C909.99994,9.999962 905.99994,9.999962 905.99994,9.999962 C905.99994,9.999962 905.99994,3.9999084 905.99994,3.9999084 C905.99994,3.9999084 904.99994,3.9999084 904.99994,3.9999084 C904.99994,3.9999084 904.99994,9.999962 904.99994,9.999962 C904.99994,9.999962 902.0,9.999962 902.0,9.999962 C902.0,9.999962 902.0,1.9999924 902.0,1.9999924 C902.0,1.9999924 899.99994,1.9999924 899.99994,1.9999924 C899.99994,1.9999924 899.99994,9.999962 899.99994,9.999962 C899.99994,9.999962 896.0,9.999962 896.0,9.999962 C896.0,9.999962 896.0,3.9999084 896.0,3.9999084 C896.0,3.9999084 894.99994,3.9999084 894.99994,3.9999084 C894.99994,3.9999084 894.99994,9.999962 894.99994,9.999962 C894.99994,9.999962 891.0,9.999962 891.0,9.999962 C891.0,9.999962 891.0,3.9999084 891.0,3.9999084 C891.0,3.9999084 889.99994,3.9999084 889.99994,3.9999084 C889.99994,3.9999084 889.99994,9.999962 889.99994,9.999962 C889.99994,9.999962 886.0,9.999962 886.0,9.999962 C886.0,9.999962 886.0,3.9999084 886.0,3.9999084 C886.0,3.9999084 885.0,3.9999084 885.0,3.9999084 C885.0,3.9999084 885.0,9.999962 885.0,9.999962 C885.0,9.999962 881.0,9.999962 881.0,9.999962 C881.0,9.999962 881.0,3.9999084 881.0,3.9999084 C881.0,3.9999084 880.0,3.9999084 880.0,3.9999084 C880.0,3.9999084 880.0,9.999962 880.0,9.999962 C880.0,9.999962 876.99994,9.999962 876.99994,9.999962 C876.99994,9.999962 876.99994,1.9999924 876.99994,1.9999924 C876.99994,1.9999924 875.0,1.9999924 875.0,1.9999924 C875.0,1.9999924 875.0,9.999962 875.0,9.999962 C875.0,9.999962 870.99994,9.999962 870.99994,9.999962 C870.99994,9.999962 870.99994,3.9999084 870.99994,3.9999084 C870.99994,3.9999084 870.0,3.9999084 870.0,3.9999084 C870.0,3.9999084 870.0,9.999962 870.0,9.999962 C870.0,9.999962 865.99994,9.999962 865.99994,9.999962 C865.99994,9.999962 865.99994,3.9999084 865.99994,3.9999084 C865.99994,3.9999084 865.0,3.9999084 865.0,3.9999084 C865.0,3.9999084 865.0,9.999962 865.0,9.999962 C865.0,9.999962 860.99994,9.999962 860.99994,9.999962 C860.99994,9.999962 860.99994,3.9999084 860.99994,3.9999084 C860.99994,3.9999084 860.0,3.9999084 860.0,3.9999084 C860.0,3.9999084 860.0,9.999962 860.0,9.999962 C860.0,9.999962 855.99994,9.999962 855.99994,9.999962 C855.99994,9.999962 855.99994,3.9999084 855.99994,3.9999084 C855.99994,3.9999084 855.0,3.9999084 855.0,3.9999084 C855.0,3.9999084 855.0,9.999962 855.0,9.999962 C855.0,9.999962 851.99994,9.999962 851.99994,9.999962 C851.99994,9.999962 851.99994,1.9999924 851.99994,1.9999924 C851.99994,1.9999924 849.99994,1.9999924 849.99994,1.9999924 C849.99994,1.9999924 849.99994,9.999962 849.99994,9.999962 C849.99994,9.999962 845.99994,9.999962 845.99994,9.999962 C845.99994,9.999962 845.99994,3.9999084 845.99994,3.9999084 C845.99994,3.9999084 844.99994,3.9999084 844.99994,3.9999084 C844.99994,3.9999084 844.99994,9.999962 844.99994,9.999962 C844.99994,9.999962 840.99994,9.999962 840.99994,9.999962 C840.99994,9.999962 840.99994,3.9999084 840.99994,3.9999084 C840.99994,3.9999084 839.99994,3.9999084 839.99994,3.9999084 C839.99994,3.9999084 839.99994,9.999962 839.99994,9.999962 C839.99994,9.999962 835.99994,9.999962 835.99994,9.999962 C835.99994,9.999962 835.99994,3.9999084 835.99994,3.9999084 C835.99994,3.9999084 834.99994,3.9999084 834.99994,3.9999084 C834.99994,3.9999084 834.99994,9.999962 834.99994,9.999962 C834.99994,9.999962 830.99994,9.999962 830.99994,9.999962 C830.99994,9.999962 830.99994,3.9999084 830.99994,3.9999084 C830.99994,3.9999084 829.99994,3.9999084 829.99994,3.9999084 C829.99994,3.9999084 829.99994,9.999962 829.99994,9.999962 C829.99994,9.999962 827.0,9.999962 827.0,9.999962 C827.0,9.999962 827.0,1.9999924 827.0,1.9999924 C827.0,1.9999924 824.99994,1.9999924 824.99994,1.9999924 C824.99994,1.9999924 824.99994,9.999962 824.99994,9.999962 C824.99994,9.999962 820.99994,9.999962 820.99994,9.999962 C820.99994,9.999962 820.99994,3.9999084 820.99994,3.9999084 C820.99994,3.9999084 819.99994,3.9999084 819.99994,3.9999084 C819.99994,3.9999084 819.99994,9.999962 819.99994,9.999962 C819.99994,9.999962 815.99994,9.999962 815.99994,9.999962 C815.99994,9.999962 815.99994,3.9999084 815.99994,3.9999084 C815.99994,3.9999084 814.99994,3.9999084 814.99994,3.9999084 C814.99994,3.9999084 814.99994,9.999962 814.99994,9.999962 C814.99994,9.999962 810.99994,9.999962 810.99994,9.999962 C810.99994,9.999962 810.99994,3.9999084 810.99994,3.9999084 C810.99994,3.9999084 809.99994,3.9999084 809.99994,3.9999084 C809.99994,3.9999084 809.99994,9.999962 809.99994,9.999962 C809.99994,9.999962 806.0,9.999962 806.0,9.999962 C806.0,9.999962 806.0,3.9999084 806.0,3.9999084 C806.0,3.9999084 804.99994,3.9999084 804.99994,3.9999084 C804.99994,3.9999084 804.99994,9.999962 804.99994,9.999962 C804.99994,9.999962 802.0,9.999962 802.0,9.999962 C802.0,9.999962 802.0,1.9999924 802.0,1.9999924 C802.0,1.9999924 799.99994,1.9999924 799.99994,1.9999924 C799.99994,1.9999924 799.99994,9.999962 799.99994,9.999962 C799.99994,9.999962 796.0,9.999962 796.0,9.999962 C796.0,9.999962 796.0,3.9999084 796.0,3.9999084 C796.0,3.9999084 794.99994,3.9999084 794.99994,3.9999084 C794.99994,3.9999084 794.99994,9.999962 794.99994,9.999962 C794.99994,9.999962 791.0,9.999962 791.0,9.999962 C791.0,9.999962 791.0,3.9999084 791.0,3.9999084 C791.0,3.9999084 790.0,3.9999084 790.0,3.9999084 C790.0,3.9999084 790.0,9.999962 790.0,9.999962 C790.0,9.999962 786.0,9.999962 786.0,9.999962 C786.0,9.999962 786.0,3.9999084 786.0,3.9999084 C786.0,3.9999084 785.0,3.9999084 785.0,3.9999084 C785.0,3.9999084 785.0,9.999962 785.0,9.999962 C785.0,9.999962 781.0,9.999962 781.0,9.999962 C781.0,9.999962 781.0,3.9999084 781.0,3.9999084 C781.0,3.9999084 780.0,3.9999084 780.0,3.9999084 C780.0,3.9999084 780.0,9.999962 780.0,9.999962 C780.0,9.999962 776.99994,9.999962 776.99994,9.999962 C776.99994,9.999962 776.99994,1.9999924 776.99994,1.9999924 C776.99994,1.9999924 775.0,1.9999924 775.0,1.9999924 C775.0,1.9999924 775.0,9.999962 775.0,9.999962 C775.0,9.999962 770.99994,9.999962 770.99994,9.999962 C770.99994,9.999962 770.99994,3.9999084 770.99994,3.9999084 C770.99994,3.9999084 770.0,3.9999084 770.0,3.9999084 C770.0,3.9999084 770.0,9.999962 770.0,9.999962 C770.0,9.999962 765.99994,9.999962 765.99994,9.999962 C765.99994,9.999962 765.99994,3.9999084 765.99994,3.9999084 C765.99994,3.9999084 765.0,3.9999084 765.0,3.9999084 C765.0,3.9999084 765.0,9.999962 765.0,9.999962 C765.0,9.999962 760.99994,9.999962 760.99994,9.999962 C760.99994,9.999962 760.99994,3.9999084 760.99994,3.9999084 C760.99994,3.9999084 760.0,3.9999084 760.0,3.9999084 C760.0,3.9999084 760.0,9.999962 760.0,9.999962 C760.0,9.999962 755.99994,9.999962 755.99994,9.999962 C755.99994,9.999962 755.99994,3.9999084 755.99994,3.9999084 C755.99994,3.9999084 754.99994,3.9999084 754.99994,3.9999084 C754.99994,3.9999084 754.99994,9.999962 754.99994,9.999962 C754.99994,9.999962 751.99994,9.999962 751.99994,9.999962 C751.99994,9.999962 751.99994,1.9999924 751.99994,1.9999924 C751.99994,1.9999924 749.99994,1.9999924 749.99994,1.9999924 C749.99994,1.9999924 749.99994,9.999962 749.99994,9.999962 C749.99994,9.999962 745.99994,9.999962 745.99994,9.999962 C745.99994,9.999962 745.99994,3.9999084 745.99994,3.9999084 C745.99994,3.9999084 744.99994,3.9999084 744.99994,3.9999084 C744.99994,3.9999084 744.99994,9.999962 744.99994,9.999962 C744.99994,9.999962 740.99994,9.999962 740.99994,9.999962 C740.99994,9.999962 740.99994,3.9999084 740.99994,3.9999084 C740.99994,3.9999084 739.99994,3.9999084 739.99994,3.9999084 C739.99994,3.9999084 739.99994,9.999962 739.99994,9.999962 C739.99994,9.999962 735.99994,9.999962 735.99994,9.999962 C735.99994,9.999962 735.99994,3.9999084 735.99994,3.9999084 C735.99994,3.9999084 734.99994,3.9999084 734.99994,3.9999084 C734.99994,3.9999084 734.99994,9.999962 734.99994,9.999962 C734.99994,9.999962 730.99994,9.999962 730.99994,9.999962 C730.99994,9.999962 730.99994,3.9999084 730.99994,3.9999084 C730.99994,3.9999084 729.99994,3.9999084 729.99994,3.9999084 C729.99994,3.9999084 729.99994,9.999962 729.99994,9.999962 C729.99994,9.999962 727.0,9.999962 727.0,9.999962 C727.0,9.999962 727.0,1.9999924 727.0,1.9999924 C727.0,1.9999924 724.99994,1.9999924 724.99994,1.9999924 C724.99994,1.9999924 724.99994,9.999962 724.99994,9.999962 C724.99994,9.999962 721.0,9.999962 721.0,9.999962 C721.0,9.999962 721.0,3.9999084 721.0,3.9999084 C721.0,3.9999084 719.99994,3.9999084 719.99994,3.9999084 C719.99994,3.9999084 719.99994,9.999962 719.99994,9.999962 C719.99994,9.999962 716.0,9.999962 716.0,9.999962 C716.0,9.999962 716.0,3.9999084 716.0,3.9999084 C716.0,3.9999084 714.99994,3.9999084 714.99994,3.9999084 C714.99994,3.9999084 714.99994,9.999962 714.99994,9.999962 C714.99994,9.999962 711.0,9.999962 711.0,9.999962 C711.0,9.999962 711.0,3.9999084 711.0,3.9999084 C711.0,3.9999084 710.0,3.9999084 710.0,3.9999084 C710.0,3.9999084 710.0,9.999962 710.0,9.999962 C710.0,9.999962 706.0,9.999962 706.0,9.999962 C706.0,9.999962 706.0,3.9999084 706.0,3.9999084 C706.0,3.9999084 705.0,3.9999084 705.0,3.9999084 C705.0,3.9999084 705.0,9.999962 705.0,9.999962 C705.0,9.999962 701.9999,9.999962 701.9999,9.999962 C701.9999,9.999962 701.9999,1.9999924 701.9999,1.9999924 C701.9999,1.9999924 700.0,1.9999924 700.0,1.9999924 C700.0,1.9999924 700.0,9.999962 700.0,9.999962 C700.0,9.999962 696.0,9.999962 696.0,9.999962 C696.0,9.999962 696.0,3.9999084 696.0,3.9999084 C696.0,3.9999084 695.0,3.9999084 695.0,3.9999084 C695.0,3.9999084 695.0,9.999962 695.0,9.999962 C695.0,9.999962 691.0,9.999962 691.0,9.999962 C691.0,9.999962 691.0,3.9999084 691.0,3.9999084 C691.0,3.9999084 690.0,3.9999084 690.0,3.9999084 C690.0,3.9999084 690.0,9.999962 690.0,9.999962 C690.0,9.999962 686.0,9.999962 686.0,9.999962 C686.0,9.999962 686.0,3.9999084 686.0,3.9999084 C686.0,3.9999084 685.0,3.9999084 685.0,3.9999084 C685.0,3.9999084 685.0,9.999962 685.0,9.999962 C685.0,9.999962 680.9999,9.999962 680.9999,9.999962 C680.9999,9.999962 680.9999,3.9999084 680.9999,3.9999084 C680.9999,3.9999084 680.0,3.9999084 680.0,3.9999084 C680.0,3.9999084 680.0,9.999962 680.0,9.999962 C680.0,9.999962 676.99994,9.999962 676.99994,9.999962 C676.99994,9.999962 676.99994,1.9999924 676.99994,1.9999924 C676.99994,1.9999924 675.0,1.9999924 675.0,1.9999924 C675.0,1.9999924 675.0,9.999962 675.0,9.999962 C675.0,9.999962 670.99994,9.999962 670.99994,9.999962 C670.99994,9.999962 670.99994,3.9999084 670.99994,3.9999084 C670.99994,3.9999084 670.0,3.9999084 670.0,3.9999084 C670.0,3.9999084 670.0,9.999962 670.0,9.999962 C670.0,9.999962 665.99994,9.999962 665.99994,9.999962 C665.99994,9.999962 665.99994,3.9999084 665.99994,3.9999084 C665.99994,3.9999084 664.9999,3.9999084 664.9999,3.9999084 C664.9999,3.9999084 664.9999,9.999962 664.9999,9.999962 C664.9999,9.999962 660.99994,9.999962 660.99994,9.999962 C660.99994,9.999962 660.99994,3.9999084 660.99994,3.9999084 C660.99994,3.9999084 659.9999,3.9999084 659.9999,3.9999084 C659.9999,3.9999084 659.9999,9.999962 659.9999,9.999962 C659.9999,9.999962 655.99994,9.999962 655.99994,9.999962 C655.99994,9.999962 655.99994,3.9999084 655.99994,3.9999084 C655.99994,3.9999084 654.9999,3.9999084 654.9999,3.9999084 C654.9999,3.9999084 654.9999,9.999962 654.9999,9.999962 C654.9999,9.999962 652.0,9.999962 652.0,9.999962 C652.0,9.999962 652.0,1.9999924 652.0,1.9999924 C652.0,1.9999924 649.99994,1.9999924 649.99994,1.9999924 C649.99994,1.9999924 649.99994,9.999962 649.99994,9.999962 C649.99994,9.999962 645.99994,9.999962 645.99994,9.999962 C645.99994,9.999962 645.99994,3.9999084 645.99994,3.9999084 C645.99994,3.9999084 644.99994,3.9999084 644.99994,3.9999084 C644.99994,3.9999084 644.99994,9.999962 644.99994,9.999962 C644.99994,9.999962 640.99994,9.999962 640.99994,9.999962 C640.99994,9.999962 640.99994,3.9999084 640.99994,3.9999084 C640.99994,3.9999084 639.99994,3.9999084 639.99994,3.9999084 C639.99994,3.9999084 639.99994,9.999962 639.99994,9.999962 C639.99994,9.999962 636.0,9.999962 636.0,9.999962 C636.0,9.999962 636.0,3.9999084 636.0,3.9999084 C636.0,3.9999084 634.99994,3.9999084 634.99994,3.9999084 C634.99994,3.9999084 634.99994,9.999962 634.99994,9.999962 C634.99994,9.999962 631.0,9.999962 631.0,9.999962 C631.0,9.999962 631.0,3.9999084 631.0,3.9999084 C631.0,3.9999084 629.99994,3.9999084 629.99994,3.9999084 C629.99994,3.9999084 629.99994,9.999962 629.99994,9.999962 C629.99994,9.999962 627.0,9.999962 627.0,9.999962 C627.0,9.999962 627.0,1.9999924 627.0,1.9999924 C627.0,1.9999924 624.99994,1.9999924 624.99994,1.9999924 C624.99994,1.9999924 624.99994,9.999962 624.99994,9.999962 C624.99994,9.999962 621.0,9.999962 621.0,9.999962 C621.0,9.999962 621.0,3.9999084 621.0,3.9999084 C621.0,3.9999084 620.0,3.9999084 620.0,3.9999084 C620.0,3.9999084 620.0,9.999962 620.0,9.999962 C620.0,9.999962 616.0,9.999962 616.0,9.999962 C616.0,9.999962 616.0,3.9999084 616.0,3.9999084 C616.0,3.9999084 615.0,3.9999084 615.0,3.9999084 C615.0,3.9999084 615.0,9.999962 615.0,9.999962 C615.0,9.999962 611.0,9.999962 611.0,9.999962 C611.0,9.999962 611.0,3.9999084 611.0,3.9999084 C611.0,3.9999084 610.0,3.9999084 610.0,3.9999084 C610.0,3.9999084 610.0,9.999962 610.0,9.999962 C610.0,9.999962 606.0,9.999962 606.0,9.999962 C606.0,9.999962 606.0,3.9999084 606.0,3.9999084 C606.0,3.9999084 605.0,3.9999084 605.0,3.9999084 C605.0,3.9999084 605.0,9.999962 605.0,9.999962 C605.0,9.999962 601.9999,9.999962 601.9999,9.999962 C601.9999,9.999962 601.9999,1.9999924 601.9999,1.9999924 C601.9999,1.9999924 600.0,1.9999924 600.0,1.9999924 C600.0,1.9999924 600.0,9.999962 600.0,9.999962 C600.0,9.999962 596.0,9.999962 596.0,9.999962 C596.0,9.999962 596.0,3.9999084 596.0,3.9999084 C596.0,3.9999084 595.0,3.9999084 595.0,3.9999084 C595.0,3.9999084 595.0,9.999962 595.0,9.999962 C595.0,9.999962 591.0,9.999962 591.0,9.999962 C591.0,9.999962 591.0,3.9999084 591.0,3.9999084 C591.0,3.9999084 590.0,3.9999084 590.0,3.9999084 C590.0,3.9999084 590.0,9.999962 590.0,9.999962 C590.0,9.999962 585.9999,9.999962 585.9999,9.999962 C585.9999,9.999962 585.9999,3.9999084 585.9999,3.9999084 C585.9999,3.9999084 585.0,3.9999084 585.0,3.9999084 C585.0,3.9999084 585.0,9.999962 585.0,9.999962 C585.0,9.999962 580.9999,9.999962 580.9999,9.999962 C580.9999,9.999962 580.9999,3.9999084 580.9999,3.9999084 C580.9999,3.9999084 580.0,3.9999084 580.0,3.9999084 C580.0,3.9999084 580.0,9.999962 580.0,9.999962 C580.0,9.999962 576.99994,9.999962 576.99994,9.999962 C576.99994,9.999962 576.99994,1.9999924 576.99994,1.9999924 C576.99994,1.9999924 575.0,1.9999924 575.0,1.9999924 C575.0,1.9999924 575.0,9.999962 575.0,9.999962 C575.0,9.999962 570.99994,9.999962 570.99994,9.999962 C570.99994,9.999962 570.99994,3.9999084 570.99994,3.9999084 C570.99994,3.9999084 569.9999,3.9999084 569.9999,3.9999084 C569.9999,3.9999084 569.9999,9.999962 569.9999,9.999962 C569.9999,9.999962 565.99994,9.999962 565.99994,9.999962 C565.99994,9.999962 565.99994,3.9999084 565.99994,3.9999084 C565.99994,3.9999084 564.9999,3.9999084 564.9999,3.9999084 C564.9999,3.9999084 564.9999,9.999962 564.9999,9.999962 C564.9999,9.999962 560.99994,9.999962 560.99994,9.999962 C560.99994,9.999962 560.99994,3.9999084 560.99994,3.9999084 C560.99994,3.9999084 559.9999,3.9999084 559.9999,3.9999084 C559.9999,3.9999084 559.9999,9.999962 559.9999,9.999962 C559.9999,9.999962 555.99994,9.999962 555.99994,9.999962 C555.99994,9.999962 555.99994,3.9999084 555.99994,3.9999084 C555.99994,3.9999084 554.99994,3.9999084 554.99994,3.9999084 C554.99994,3.9999084 554.99994,9.999962 554.99994,9.999962 C554.99994,9.999962 552.0,9.999962 552.0,9.999962 C552.0,9.999962 552.0,1.9999924 552.0,1.9999924 C552.0,1.9999924 549.99994,1.9999924 549.99994,1.9999924 C549.99994,1.9999924 549.99994,9.999962 549.99994,9.999962 C549.99994,9.999962 545.99994,9.999962 545.99994,9.999962 C545.99994,9.999962 545.99994,3.9999084 545.99994,3.9999084 C545.99994,3.9999084 544.99994,3.9999084 544.99994,3.9999084 C544.99994,3.9999084 544.99994,9.999962 544.99994,9.999962 C544.99994,9.999962 541.0,9.999962 541.0,9.999962 C541.0,9.999962 541.0,3.9999084 541.0,3.9999084 C541.0,3.9999084 539.99994,3.9999084 539.99994,3.9999084 C539.99994,3.9999084 539.99994,9.999962 539.99994,9.999962 C539.99994,9.999962 536.0,9.999962 536.0,9.999962 C536.0,9.999962 536.0,3.9999084 536.0,3.9999084 C536.0,3.9999084 534.99994,3.9999084 534.99994,3.9999084 C534.99994,3.9999084 534.99994,9.999962 534.99994,9.999962 C534.99994,9.999962 531.0,9.999962 531.0,9.999962 C531.0,9.999962 531.0,3.9999084 531.0,3.9999084 C531.0,3.9999084 529.99994,3.9999084 529.99994,3.9999084 C529.99994,3.9999084 529.99994,9.999962 529.99994,9.999962 C529.99994,9.999962 527.0,9.999962 527.0,9.999962 C527.0,9.999962 527.0,1.9999924 527.0,1.9999924 C527.0,1.9999924 525.0,1.9999924 525.0,1.9999924 C525.0,1.9999924 525.0,9.999962 525.0,9.999962 C525.0,9.999962 521.0,9.999962 521.0,9.999962 C521.0,9.999962 521.0,3.9999084 521.0,3.9999084 C521.0,3.9999084 520.0,3.9999084 520.0,3.9999084 C520.0,3.9999084 520.0,9.999962 520.0,9.999962 C520.0,9.999962 516.0,9.999962 516.0,9.999962 C516.0,9.999962 516.0,3.9999084 516.0,3.9999084 C516.0,3.9999084 515.0,3.9999084 515.0,3.9999084 C515.0,3.9999084 515.0,9.999962 515.0,9.999962 C515.0,9.999962 511.0,9.999962 511.0,9.999962 C511.0,9.999962 511.0,3.9999084 511.0,3.9999084 C511.0,3.9999084 509.99997,3.9999084 509.99997,3.9999084 C509.99997,3.9999084 509.99997,9.999962 509.99997,9.999962 C509.99997,9.999962 506.0,9.999962 506.0,9.999962 C506.0,9.999962 506.0,3.9999084 506.0,3.9999084 C506.0,3.9999084 504.99997,3.9999084 504.99997,3.9999084 C504.99997,3.9999084 504.99997,9.999962 504.99997,9.999962 C504.99997,9.999962 501.99994,9.999962 501.99994,9.999962 C501.99994,9.999962 501.99994,1.9999924 501.99994,1.9999924 C501.99994,1.9999924 499.99997,1.9999924 499.99997,1.9999924 C499.99997,1.9999924 499.99997,9.999962 499.99997,9.999962 C499.99997,9.999962 495.9999,9.999962 495.9999,9.999962 C495.9999,9.999962 495.9999,3.9999084 495.9999,3.9999084 C495.9999,3.9999084 494.99997,3.9999084 494.99997,3.9999084 C494.99997,3.9999084 494.99997,9.999962 494.99997,9.999962 C494.99997,9.999962 490.9999,9.999962 490.9999,9.999962 C490.9999,9.999962 490.9999,3.9999084 490.9999,3.9999084 C490.9999,3.9999084 490.0,3.9999084 490.0,3.9999084 C490.0,3.9999084 490.0,9.999962 490.0,9.999962 C490.0,9.999962 485.9999,9.999962 485.9999,9.999962 C485.9999,9.999962 485.9999,3.9999084 485.9999,3.9999084 C485.9999,3.9999084 485.0,3.9999084 485.0,3.9999084 C485.0,3.9999084 485.0,9.999962 485.0,9.999962 C485.0,9.999962 480.99994,9.999962 480.99994,9.999962 C480.99994,9.999962 480.99994,4.999939 480.99994,4.999939 C480.99994,4.999939 480.0,4.999939 480.0,4.999939 C480.0,4.999939 480.0,9.999962 480.0,9.999962 C480.0,9.999962 476.99994,9.999962 476.99994,9.999962 C476.99994,9.999962 476.99994,1.9999924 476.99994,1.9999924 C476.99994,1.9999924 474.9999,1.9999924 474.9999,1.9999924 C474.9999,1.9999924 474.9999,9.999962 474.9999,9.999962 C474.9999,9.999962 471.99994,9.999962 471.99994,9.999962 C471.99994,9.999962 471.99994,3.9999084 471.99994,3.9999084 C471.99994,3.9999084 470.99994,3.9999084 470.99994,3.9999084 C470.99994,3.9999084 470.99994,9.999962 470.99994,9.999962 C470.99994,9.999962 466.99994,9.999962 466.99994,9.999962 C466.99994,9.999962 466.99994,3.9999084 466.99994,3.9999084 C466.99994,3.9999084 465.99994,3.9999084 465.99994,3.9999084 C465.99994,3.9999084 465.99994,9.999962 465.99994,9.999962 C465.99994,9.999962 461.99997,9.999962 461.99997,9.999962 C461.99997,9.999962 461.99997,3.9999084 461.99997,3.9999084 C461.99997,3.9999084 460.99994,3.9999084 460.99994,3.9999084 C460.99994,3.9999084 460.99994,9.999962 460.99994,9.999962 C460.99994,9.999962 456.99997,9.999962 456.99997,9.999962 C456.99997,9.999962 456.99997,3.9999084 456.99997,3.9999084 C456.99997,3.9999084 455.99994,3.9999084 455.99994,3.9999084 C455.99994,3.9999084 455.99994,9.999962 455.99994,9.999962 C455.99994,9.999962 453.0,9.999962 453.0,9.999962 C453.0,9.999962 453.0,1.9999924 453.0,1.9999924 C453.0,1.9999924 450.99994,1.9999924 450.99994,1.9999924 C450.99994,1.9999924 450.99994,9.999962 450.99994,9.999962 C450.99994,9.999962 446.99997,9.999962 446.99997,9.999962 C446.99997,9.999962 446.99997,3.9999084 446.99997,3.9999084 C446.99997,3.9999084 445.99994,3.9999084 445.99994,3.9999084 C445.99994,3.9999084 445.99994,9.999962 445.99994,9.999962 C445.99994,9.999962 442.0,9.999962 442.0,9.999962 C442.0,9.999962 442.0,3.9999084 442.0,3.9999084 C442.0,3.9999084 440.99997,3.9999084 440.99997,3.9999084 C440.99997,3.9999084 440.99997,9.999962 440.99997,9.999962 C440.99997,9.999962 437.0,9.999962 437.0,9.999962 C437.0,9.999962 437.0,3.9999084 437.0,3.9999084 C437.0,3.9999084 435.99997,3.9999084 435.99997,3.9999084 C435.99997,3.9999084 435.99997,9.999962 435.99997,9.999962 C435.99997,9.999962 432.0,9.999962 432.0,9.999962 C432.0,9.999962 432.0,3.9999084 432.0,3.9999084 C432.0,3.9999084 430.99997,3.9999084 430.99997,3.9999084 C430.99997,3.9999084 430.99997,9.999962 430.99997,9.999962 C430.99997,9.999962 427.99994,9.999962 427.99994,9.999962 C427.99994,9.999962 427.99994,1.9999924 427.99994,1.9999924 C427.99994,1.9999924 426.0,1.9999924 426.0,1.9999924 C426.0,1.9999924 426.0,9.999962 426.0,9.999962 C426.0,9.999962 421.9999,9.999962 421.9999,9.999962 C421.9999,9.999962 421.9999,3.9999084 421.9999,3.9999084 C421.9999,3.9999084 421.0,3.9999084 421.0,3.9999084 C421.0,3.9999084 421.0,9.999962 421.0,9.999962 C421.0,9.999962 416.9999,9.999962 416.9999,9.999962 C416.9999,9.999962 416.9999,3.9999084 416.9999,3.9999084 C416.9999,3.9999084 416.0,3.9999084 416.0,3.9999084 C416.0,3.9999084 416.0,9.999962 416.0,9.999962 C416.0,9.999962 411.99994,9.999962 411.99994,9.999962 C411.99994,9.999962 411.99994,3.9999084 411.99994,3.9999084 C411.99994,3.9999084 411.0,3.9999084 411.0,3.9999084 C411.0,3.9999084 411.0,9.999962 411.0,9.999962 C411.0,9.999962 406.99994,9.999962 406.99994,9.999962 C406.99994,9.999962 406.99994,3.9999084 406.99994,3.9999084 C406.99994,3.9999084 406.0,3.9999084 406.0,3.9999084 C406.0,3.9999084 406.0,9.999962 406.0,9.999962 C406.0,9.999962 402.99994,9.999962 402.99994,9.999962 C402.99994,9.999962 402.99994,1.9999924 402.99994,1.9999924 C402.99994,1.9999924 400.9999,1.9999924 400.9999,1.9999924 C400.9999,1.9999924 400.9999,9.999962 400.9999,9.999962 C400.9999,9.999962 396.99994,9.999962 396.99994,9.999962 C396.99994,9.999962 396.99994,3.9999084 396.99994,3.9999084 C396.99994,3.9999084 395.99994,3.9999084 395.99994,3.9999084 C395.99994,3.9999084 395.99994,9.999962 395.99994,9.999962 C395.99994,9.999962 391.99994,9.999962 391.99994,9.999962 C391.99994,9.999962 391.99994,3.9999084 391.99994,3.9999084 C391.99994,3.9999084 390.99994,3.9999084 390.99994,3.9999084 C390.99994,3.9999084 390.99994,9.999962 390.99994,9.999962 C390.99994,9.999962 386.99994,9.999962 386.99994,9.999962 C386.99994,9.999962 386.99994,3.9999084 386.99994,3.9999084 C386.99994,3.9999084 385.99994,3.9999084 385.99994,3.9999084 C385.99994,3.9999084 385.99994,9.999962 385.99994,9.999962 C385.99994,9.999962 381.99994,9.999962 381.99994,9.999962 C381.99994,9.999962 381.99994,3.9999084 381.99994,3.9999084 C381.99994,3.9999084 380.99994,3.9999084 380.99994,3.9999084 C380.99994,3.9999084 380.99994,9.999962 380.99994,9.999962 C380.99994,9.999962 377.99997,9.999962 377.99997,9.999962 C377.99997,9.999962 377.99997,1.9999924 377.99997,1.9999924 C377.99997,1.9999924 375.99994,1.9999924 375.99994,1.9999924 C375.99994,1.9999924 375.99994,9.999962 375.99994,9.999962 C375.99994,9.999962 371.99994,9.999962 371.99994,9.999962 C371.99994,9.999962 371.99994,3.9999084 371.99994,3.9999084 C371.99994,3.9999084 370.99994,3.9999084 370.99994,3.9999084 C370.99994,3.9999084 370.99994,9.999962 370.99994,9.999962 C370.99994,9.999962 366.99997,9.999962 366.99997,9.999962 C366.99997,9.999962 366.99997,3.9999084 366.99997,3.9999084 C366.99997,3.9999084 365.99994,3.9999084 365.99994,3.9999084 C365.99994,3.9999084 365.99994,9.999962 365.99994,9.999962 C365.99994,9.999962 361.99997,9.999962 361.99997,9.999962 C361.99997,9.999962 361.99997,3.9999084 361.99997,3.9999084 C361.99997,3.9999084 360.99994,3.9999084 360.99994,3.9999084 C360.99994,3.9999084 360.99994,9.999962 360.99994,9.999962 C360.99994,9.999962 356.99997,9.999962 356.99997,9.999962 C356.99997,9.999962 356.99997,3.9999084 356.99997,3.9999084 C356.99997,3.9999084 355.99994,3.9999084 355.99994,3.9999084 C355.99994,3.9999084 355.99994,9.999962 355.99994,9.999962 C355.99994,9.999962 353.0,9.999962 353.0,9.999962 C353.0,9.999962 353.0,1.9999924 353.0,1.9999924 C353.0,1.9999924 350.99994,1.9999924 350.99994,1.9999924 C350.99994,1.9999924 350.99994,9.999962 350.99994,9.999962 C350.99994,9.999962 347.0,9.999962 347.0,9.999962 C347.0,9.999962 347.0,3.9999084 347.0,3.9999084 C347.0,3.9999084 345.99997,3.9999084 345.99997,3.9999084 C345.99997,3.9999084 345.99997,9.999962 345.99997,9.999962 C345.99997,9.999962 342.0,9.999962 342.0,9.999962 C342.0,9.999962 342.0,3.9999084 342.0,3.9999084 C342.0,3.9999084 340.99997,3.9999084 340.99997,3.9999084 C340.99997,3.9999084 340.99997,9.999962 340.99997,9.999962 C340.99997,9.999962 337.0,9.999962 337.0,9.999962 C337.0,9.999962 337.0,3.9999084 337.0,3.9999084 C337.0,3.9999084 335.99997,3.9999084 335.99997,3.9999084 C335.99997,3.9999084 335.99997,9.999962 335.99997,9.999962 C335.99997,9.999962 332.0,9.999962 332.0,9.999962 C332.0,9.999962 332.0,3.9999084 332.0,3.9999084 C332.0,3.9999084 330.99997,3.9999084 330.99997,3.9999084 C330.99997,3.9999084 330.99997,9.999962 330.99997,9.999962 C330.99997,9.999962 327.99994,9.999962 327.99994,9.999962 C327.99994,9.999962 327.99994,1.9999924 327.99994,1.9999924 C327.99994,1.9999924 326.0,1.9999924 326.0,1.9999924 C326.0,1.9999924 326.0,9.999962 326.0,9.999962 C326.0,9.999962 321.9999,9.999962 321.9999,9.999962 C321.9999,9.999962 321.9999,3.9999084 321.9999,3.9999084 C321.9999,3.9999084 321.0,3.9999084 321.0,3.9999084 C321.0,3.9999084 321.0,9.999962 321.0,9.999962 C321.0,9.999962 316.99994,9.999962 316.99994,9.999962 C316.99994,9.999962 316.99994,3.9999084 316.99994,3.9999084 C316.99994,3.9999084 316.0,3.9999084 316.0,3.9999084 C316.0,3.9999084 316.0,9.999962 316.0,9.999962 C316.0,9.999962 311.99994,9.999962 311.99994,9.999962 C311.99994,9.999962 311.99994,3.9999084 311.99994,3.9999084 C311.99994,3.9999084 311.0,3.9999084 311.0,3.9999084 C311.0,3.9999084 311.0,9.999962 311.0,9.999962 C311.0,9.999962 306.99994,9.999962 306.99994,9.999962 C306.99994,9.999962 306.99994,3.9999084 306.99994,3.9999084 C306.99994,3.9999084 305.9999,3.9999084 305.9999,3.9999084 C305.9999,3.9999084 305.9999,9.999962 305.9999,9.999962 C305.9999,9.999962 302.99994,9.999962 302.99994,9.999962 C302.99994,9.999962 302.99994,1.9999924 302.99994,1.9999924 C302.99994,1.9999924 300.9999,1.9999924 300.9999,1.9999924 C300.9999,1.9999924 300.9999,9.999962 300.9999,9.999962 C300.9999,9.999962 296.99994,9.999962 296.99994,9.999962 C296.99994,9.999962 296.99994,3.9999084 296.99994,3.9999084 C296.99994,3.9999084 295.99994,3.9999084 295.99994,3.9999084 C295.99994,3.9999084 295.99994,9.999962 295.99994,9.999962 C295.99994,9.999962 291.99994,9.999962 291.99994,9.999962 C291.99994,9.999962 291.99994,3.9999084 291.99994,3.9999084 C291.99994,3.9999084 290.99994,3.9999084 290.99994,3.9999084 C290.99994,3.9999084 290.99994,9.999962 290.99994,9.999962 C290.99994,9.999962 286.99994,9.999962 286.99994,9.999962 C286.99994,9.999962 286.99994,3.9999084 286.99994,3.9999084 C286.99994,3.9999084 285.99994,3.9999084 285.99994,3.9999084 C285.99994,3.9999084 285.99994,9.999962 285.99994,9.999962 C285.99994,9.999962 281.99994,9.999962 281.99994,9.999962 C281.99994,9.999962 281.99994,3.9999084 281.99994,3.9999084 C281.99994,3.9999084 280.99994,3.9999084 280.99994,3.9999084 C280.99994,3.9999084 280.99994,9.999962 280.99994,9.999962 C280.99994,9.999962 277.99997,9.999962 277.99997,9.999962 C277.99997,9.999962 277.99997,1.9999924 277.99997,1.9999924 C277.99997,1.9999924 275.99994,1.9999924 275.99994,1.9999924 C275.99994,1.9999924 275.99994,9.999962 275.99994,9.999962 C275.99994,9.999962 271.99997,9.999962 271.99997,9.999962 C271.99997,9.999962 271.99997,3.9999084 271.99997,3.9999084 C271.99997,3.9999084 270.99994,3.9999084 270.99994,3.9999084 C270.99994,3.9999084 270.99994,9.999962 270.99994,9.999962 C270.99994,9.999962 266.99997,9.999962 266.99997,9.999962 C266.99997,9.999962 266.99997,3.9999084 266.99997,3.9999084 C266.99997,3.9999084 265.99994,3.9999084 265.99994,3.9999084 C265.99994,3.9999084 265.99994,9.999962 265.99994,9.999962 C265.99994,9.999962 261.99997,9.999962 261.99997,9.999962 C261.99997,9.999962 261.99997,3.9999084 261.99997,3.9999084 C261.99997,3.9999084 260.99997,3.9999084 260.99997,3.9999084 C260.99997,3.9999084 260.99997,9.999962 260.99997,9.999962 C260.99997,9.999962 256.99997,9.999962 256.99997,9.999962 C256.99997,9.999962 256.99997,3.9999084 256.99997,3.9999084 C256.99997,3.9999084 255.99997,3.9999084 255.99997,3.9999084 C255.99997,3.9999084 255.99997,9.999962 255.99997,9.999962 C255.99997,9.999962 252.99991,9.999962 252.99991,9.999962 C252.99991,9.999962 252.99991,1.9999924 252.99991,1.9999924 C252.99991,1.9999924 250.99997,1.9999924 250.99997,1.9999924 C250.99997,1.9999924 250.99997,9.999962 250.99997,9.999962 C250.99997,9.999962 246.99998,9.999962 246.99998,9.999962 C246.99998,9.999962 246.99998,3.9999084 246.99998,3.9999084 C246.99998,3.9999084 245.99997,3.9999084 245.99997,3.9999084 C245.99997,3.9999084 245.99997,9.999962 245.99997,9.999962 C245.99997,9.999962 242.0,9.999962 242.0,9.999962 C242.0,9.999962 242.0,3.9999084 242.0,3.9999084 C242.0,3.9999084 240.99997,3.9999084 240.99997,3.9999084 C240.99997,3.9999084 240.99997,9.999962 240.99997,9.999962 C240.99997,9.999962 237.0,9.999962 237.0,9.999962 C237.0,9.999962 237.0,3.9999084 237.0,3.9999084 C237.0,3.9999084 235.99998,3.9999084 235.99998,3.9999084 C235.99998,3.9999084 235.99998,9.999962 235.99998,9.999962 C235.99998,9.999962 231.99991,9.999962 231.99991,9.999962 C231.99991,9.999962 231.99991,3.9999084 231.99991,3.9999084 C231.99991,3.9999084 230.99998,3.9999084 230.99998,3.9999084 C230.99998,3.9999084 230.99998,9.999962 230.99998,9.999962 C230.99998,9.999962 227.99994,9.999962 227.99994,9.999962 C227.99994,9.999962 227.99994,1.9999924 227.99994,1.9999924 C227.99994,1.9999924 225.99998,1.9999924 225.99998,1.9999924 C225.99998,1.9999924 225.99998,9.999962 225.99998,9.999962 C225.99998,9.999962 221.99992,9.999962 221.99992,9.999962 C221.99992,9.999962 221.99992,3.9999084 221.99992,3.9999084 C221.99992,3.9999084 221.0,3.9999084 221.0,3.9999084 C221.0,3.9999084 221.0,9.999962 221.0,9.999962 C221.0,9.999962 216.99992,9.999962 216.99992,9.999962 C216.99992,9.999962 216.99992,3.9999084 216.99992,3.9999084 C216.99992,3.9999084 216.0,3.9999084 216.0,3.9999084 C216.0,3.9999084 216.0,9.999962 216.0,9.999962 C216.0,9.999962 212.00002,9.999962 212.00002,9.999962 C212.00002,9.999962 212.00002,3.9999084 212.00002,3.9999084 C212.00002,3.9999084 211.0,3.9999084 211.0,3.9999084 C211.0,3.9999084 211.0,9.999962 211.0,9.999962 C211.0,9.999962 207.00003,9.999962 207.00003,9.999962 C207.00003,9.999962 207.00003,3.9999084 207.00003,3.9999084 C207.00003,3.9999084 206.00002,3.9999084 206.00002,3.9999084 C206.00002,3.9999084 206.00002,9.999962 206.00002,9.999962 C206.00002,9.999962 203.00005,9.999962 203.00005,9.999962 C203.00005,9.999962 203.00005,1.9999924 203.00005,1.9999924 C203.00005,1.9999924 201.00002,1.9999924 201.00002,1.9999924 C201.00002,1.9999924 201.00002,9.999962 201.00002,9.999962 C201.00002,9.999962 197.00003,9.999962 197.00003,9.999962 C197.00003,9.999962 197.00003,3.9999084 197.00003,3.9999084 C197.00003,3.9999084 196.00002,3.9999084 196.00002,3.9999084 C196.00002,3.9999084 196.00002,9.999962 196.00002,9.999962 C196.00002,9.999962 192.00005,9.999962 192.00005,9.999962 C192.00005,9.999962 192.00005,3.9999084 192.00005,3.9999084 C192.00005,3.9999084 191.00003,3.9999084 191.00003,3.9999084 C191.00003,3.9999084 191.00003,9.999962 191.00003,9.999962 C191.00003,9.999962 187.00005,9.999962 187.00005,9.999962 C187.00005,9.999962 187.00005,3.9999084 187.00005,3.9999084 C187.00005,3.9999084 186.00003,3.9999084 186.00003,3.9999084 C186.00003,3.9999084 186.00003,9.999962 186.00003,9.999962 C186.00003,9.999962 182.00005,9.999962 182.00005,9.999962 C182.00005,9.999962 182.00005,3.9999084 182.00005,3.9999084 C182.00005,3.9999084 181.00003,3.9999084 181.00003,3.9999084 C181.00003,3.9999084 181.00003,9.999962 181.00003,9.999962 C181.00003,9.999962 178.00008,9.999962 178.00008,9.999962 C178.00008,9.999962 178.00008,1.9999924 178.00008,1.9999924 C178.00008,1.9999924 176.00003,1.9999924 176.00003,1.9999924 C176.00003,1.9999924 176.00003,9.999962 176.00003,9.999962 C176.00003,9.999962 172.00006,9.999962 172.00006,9.999962 C172.00006,9.999962 172.00006,3.9999084 172.00006,3.9999084 C172.00006,3.9999084 171.00005,3.9999084 171.00005,3.9999084 C171.00005,3.9999084 171.00005,9.999962 171.00005,9.999962 C171.00005,9.999962 167.00006,9.999962 167.00006,9.999962 C167.00006,9.999962 167.00006,3.9999084 167.00006,3.9999084 C167.00006,3.9999084 166.00005,3.9999084 166.00005,3.9999084 C166.00005,3.9999084 166.00005,9.999962 166.00005,9.999962 C166.00005,9.999962 162.00006,9.999962 162.00006,9.999962 C162.00006,9.999962 162.00006,3.9999084 162.00006,3.9999084 C162.00006,3.9999084 161.00006,3.9999084 161.00006,3.9999084 C161.00006,3.9999084 161.00006,9.999962 161.00006,9.999962 C161.00006,9.999962 157.00008,9.999962 157.00008,9.999962 C157.00008,9.999962 157.00008,3.9999084 157.00008,3.9999084 C157.00008,3.9999084 156.00006,3.9999084 156.00006,3.9999084 C156.00006,3.9999084 156.00006,9.999962 156.00006,9.999962 C156.00006,9.999962 153.0,9.999962 153.0,9.999962 C153.0,9.999962 153.0,1.9999924 153.0,1.9999924 C153.0,1.9999924 151.00006,1.9999924 151.00006,1.9999924 C151.00006,1.9999924 151.00006,9.999962 151.00006,9.999962 C151.00006,9.999962 147.00009,9.999962 147.00009,9.999962 C147.00009,9.999962 147.00009,3.9999084 147.00009,3.9999084 C147.00009,3.9999084 146.00006,3.9999084 146.00006,3.9999084 C146.00006,3.9999084 146.00006,9.999962 146.00006,9.999962 C146.00006,9.999962 142.00009,9.999962 142.00009,9.999962 C142.00009,9.999962 142.00009,3.9999084 142.00009,3.9999084 C142.00009,3.9999084 141.00006,3.9999084 141.00006,3.9999084 C141.00006,3.9999084 141.00006,9.999962 141.00006,9.999962 C141.00006,9.999962 137.0,9.999962 137.0,9.999962 C137.0,9.999962 137.0,3.9999084 137.0,3.9999084 C137.0,3.9999084 136.00008,3.9999084 136.00008,3.9999084 C136.00008,3.9999084 136.00008,9.999962 136.00008,9.999962 C136.00008,9.999962 132.0,9.999962 132.0,9.999962 C132.0,9.999962 132.0,3.9999084 132.0,3.9999084 C132.0,3.9999084 131.00009,3.9999084 131.00009,3.9999084 C131.00009,3.9999084 131.00009,9.999962 131.00009,9.999962 C131.00009,9.999962 128.00003,9.999962 128.00003,9.999962 C128.00003,9.999962 128.00003,1.9999924 128.00003,1.9999924 C128.00003,1.9999924 126.000084,1.9999924 126.000084,1.9999924 C126.000084,1.9999924 126.000084,9.999962 126.000084,9.999962 C126.000084,9.999962 122.000015,9.999962 122.000015,9.999962 C122.000015,9.999962 122.000015,3.9999084 122.000015,3.9999084 C122.000015,3.9999084 121.0,3.9999084 121.0,3.9999084 C121.0,3.9999084 121.0,9.999962 121.0,9.999962 C121.0,9.999962 117.00002,9.999962 117.00002,9.999962 C117.00002,9.999962 117.00002,3.9999084 117.00002,3.9999084 C117.00002,3.9999084 116.00001,3.9999084 116.00001,3.9999084 C116.00001,3.9999084 116.00001,9.999962 116.00001,9.999962 C116.00001,9.999962 112.00003,9.999962 112.00003,9.999962 C112.00003,9.999962 112.00003,3.9999084 112.00003,3.9999084 C112.00003,3.9999084 111.00001,3.9999084 111.00001,3.9999084 C111.00001,3.9999084 111.00001,9.999962 111.00001,9.999962 C111.00001,9.999962 107.00003,9.999962 107.00003,9.999962 C107.00003,9.999962 107.00003,3.9999084 107.00003,3.9999084 C107.00003,3.9999084 106.000015,3.9999084 106.000015,3.9999084 C106.000015,3.9999084 106.000015,9.999962 106.000015,9.999962 C106.000015,9.999962 103.00005,9.999962 103.00005,9.999962 C103.00005,9.999962 103.00005,1.9999924 103.00005,1.9999924 C103.00005,1.9999924 101.00002,1.9999924 101.00002,1.9999924 C101.00002,1.9999924 101.00002,9.999962 101.00002,9.999962 C101.00002,9.999962 97.000046,9.999962 97.000046,9.999962 C97.000046,9.999962 97.000046,3.9999084 97.000046,3.9999084 C97.000046,3.9999084 96.00002,3.9999084 96.00002,3.9999084 C96.00002,3.9999084 96.00002,9.999962 96.00002,9.999962 C96.00002,9.999962 92.000046,9.999962 92.000046,9.999962 C92.000046,9.999962 92.000046,3.9999084 92.000046,3.9999084 C92.000046,3.9999084 91.00003,3.9999084 91.00003,3.9999084 C91.00003,3.9999084 91.00003,9.999962 91.00003,9.999962 C91.00003,9.999962 87.000046,9.999962 87.000046,9.999962 C87.000046,9.999962 87.000046,3.9999084 87.000046,3.9999084 C87.000046,3.9999084 86.00003,3.9999084 86.00003,3.9999084 C86.00003,3.9999084 86.00003,9.999962 86.00003,9.999962 C86.00003,9.999962 82.00006,9.999962 82.00006,9.999962 C82.00006,9.999962 82.00006,3.9999084 82.00006,3.9999084 C82.00006,3.9999084 81.000046,3.9999084 81.000046,3.9999084 C81.000046,3.9999084 81.000046,9.999962 81.000046,9.999962 C81.000046,9.999962 78.00008,9.999962 78.00008,9.999962 C78.00008,9.999962 78.00008,1.9999924 78.00008,1.9999924 C78.00008,1.9999924 76.000046,1.9999924 76.000046,1.9999924 C76.000046,1.9999924 76.000046,9.999962 76.000046,9.999962 C76.000046,9.999962 72.00006,9.999962 72.00006,9.999962 C72.00006,9.999962 72.00006,3.9999084 72.00006,3.9999084 C72.00006,3.9999084 71.000046,3.9999084 71.000046,3.9999084 C71.000046,3.9999084 71.000046,9.999962 71.000046,9.999962 C71.000046,9.999962 67.00008,9.999962 67.00008,9.999962 C67.00008,9.999962 67.00008,3.9999084 67.00008,3.9999084 C67.00008,3.9999084 66.00006,3.9999084 66.00006,3.9999084 C66.00006,3.9999084 66.00006,9.999962 66.00006,9.999962 C66.00006,9.999962 62.000076,9.999962 62.000076,9.999962 C62.000076,9.999962 62.000076,3.9999084 62.000076,3.9999084 C62.000076,3.9999084 61.00006,3.9999084 61.00006,3.9999084 C61.00006,3.9999084 61.00006,9.999962 61.00006,9.999962 C61.00006,9.999962 57.000076,9.999962 57.000076,9.999962 C57.000076,9.999962 57.000076,3.9999084 57.000076,3.9999084 C57.000076,3.9999084 56.00006,3.9999084 56.00006,3.9999084 C56.00006,3.9999084 56.00006,9.999962 56.00006,9.999962 C56.00006,9.999962 53.000015,9.999962 53.000015,9.999962 C53.000015,9.999962 53.000015,1.9999924 53.000015,1.9999924 C53.000015,1.9999924 51.00006,1.9999924 51.00006,1.9999924 C51.00006,1.9999924 51.00006,9.999962 51.00006,9.999962 C51.00006,9.999962 47.0,9.999962 47.0,9.999962 C47.0,9.999962 47.0,3.9999084 47.0,3.9999084 C47.0,3.9999084 46.000076,3.9999084 46.000076,3.9999084 C46.000076,3.9999084 46.000076,9.999962 46.000076,9.999962 C46.000076,9.999962 42.0,9.999962 42.0,9.999962 C42.0,9.999962 42.0,3.9999084 42.0,3.9999084 C42.0,3.9999084 41.000076,3.9999084 41.000076,3.9999084 C41.000076,3.9999084 41.000076,9.999962 41.000076,9.999962 C41.000076,9.999962 37.000015,9.999962 37.000015,9.999962 C37.000015,9.999962 37.000015,3.9999084 37.000015,3.9999084 C37.000015,3.9999084 36.000076,3.9999084 36.000076,3.9999084 C36.000076,3.9999084 36.000076,9.999962 36.000076,9.999962 C36.000076,9.999962 32.000015,9.999962 32.000015,9.999962 C32.000015,9.999962 32.000015,3.9999084 32.000015,3.9999084 C32.000015,3.9999084 31.000092,3.9999084 31.000092,3.9999084 C31.000092,3.9999084 31.000092,9.999962 31.000092,9.999962 C31.000092,9.999962 28.00003,9.999962 28.00003,9.999962 C28.00003,9.999962 28.00003,1.9999924 28.00003,1.9999924 C28.00003,1.9999924 26.0,1.9999924 26.0,1.9999924 C26.0,1.9999924 26.0,9.999962 26.0,9.999962 C26.0,9.999962 22.00003,9.999962 22.00003,9.999962 C22.00003,9.999962 22.00003,3.9999084 22.00003,3.9999084 C22.00003,3.9999084 21.0,3.9999084 21.0,3.9999084 C21.0,3.9999084 21.0,9.999962 21.0,9.999962 C21.0,9.999962 17.00003,9.999962 17.00003,9.999962 C17.00003,9.999962 17.00003,3.9999084 17.00003,3.9999084 C17.00003,3.9999084 16.000015,3.9999084 16.000015,3.9999084 C16.000015,3.9999084 16.000015,9.999962 16.000015,9.999962 C16.000015,9.999962 12.0000305,9.999962 12.0000305,9.999962 C12.0000305,9.999962 12.0000305,3.9999084 12.0000305,3.9999084 C12.0000305,3.9999084 11.000015,3.9999084 11.000015,3.9999084 C11.000015,3.9999084 11.000015,9.999962 11.000015,9.999962 C11.000015,9.999962 7.000046,9.999962 7.000046,9.999962 C7.000046,9.999962 7.000046,4.999939 7.000046,4.999939 C7.000046,4.999939 6.0000153,4.999939 6.0000153,4.999939 C6.0000153,4.999939 6.0000153,9.999962 6.0000153,9.999962 C6.0000153,9.999962 3.000061,9.999962 3.000061,9.999962 C3.000061,9.999962 3.000061,1.9999924 3.000061,1.9999924 C3.000061,1.9999924 1.0000305,1.9999924 1.0000305,1.9999924 C1.0000305,1.9999924 1.0000305,10.999992 1.0000305,10.999992 C1.0000305,10.999992 1898.0,10.999992 1898.0,10.999992 C1898.0,10.999992 1898.0,9.999962 1898.0,9.999962 C1898.0,9.999962 1894.0,9.999962 1894.0,9.999962 C1894.0,9.999962 1894.0,3.9999084 1894.0,3.9999084 C1894.0,3.9999084 1893.0,3.9999084 1893.0,3.9999084 C1893.0,3.9999084 1893.0,9.999962 1893.0,9.999962 C1893.0,9.999962 1889.0,9.999962 1889.0,9.999962 C1889.0,9.999962 1889.0,3.9999084 1889.0,3.9999084 C1889.0,3.9999084 1888.0,3.9999084 1888.0,3.9999084 C1888.0,3.9999084 1888.0,9.999962 1888.0,9.999962 C1888.0,9.999962 1884.0,9.999962 1884.0,9.999962 C1884.0,9.999962 1884.0,3.9999084 1884.0,3.9999084 C1884.0,3.9999084 1883.0,3.9999084 1883.0,3.9999084 C1883.0,3.9999084 1883.0,9.999962 1883.0,9.999962 C1883.0,9.999962 1879.0,9.999962 1879.0,9.999962 C1879.0,9.999962 1879.0,3.9999084 1879.0,3.9999084 C1879.0,3.9999084 1878.0,3.9999084 1878.0,3.9999084 C1878.0,3.9999084 1878.0,9.999962 1878.0,9.999962 C1878.0,9.999962 1874.9999,9.999962 1874.9999,9.999962 C1874.9999,9.999962 1874.9999,1.9999924 1874.9999,1.9999924 C1874.9999,1.9999924 1873.0001,1.9999924 1873.0001,1.9999924 C1873.0001,1.9999924 1873.0001,9.999962 1873.0001,9.999962 C1873.0001,9.999962 1869.0,9.999962 1869.0,9.999962 C1869.0,9.999962 1869.0,3.9999084 1869.0,3.9999084 C1869.0,3.9999084 1868.0001,3.9999084 1868.0001,3.9999084 C1868.0001,3.9999084 1868.0001,9.999962 1868.0001,9.999962 C1868.0001,9.999962 1864.0,9.999962 1864.0,9.999962 C1864.0,9.999962 1864.0,3.9999084 1864.0,3.9999084 C1864.0,3.9999084 1863.0001,3.9999084 1863.0001,3.9999084 C1863.0001,3.9999084 1863.0001,9.999962 1863.0001,9.999962 C1863.0001,9.999962 1859.0,9.999962 1859.0,9.999962 C1859.0,9.999962 1859.0,3.9999084 1859.0,3.9999084 C1859.0,3.9999084 1858.0001,3.9999084 1858.0001,3.9999084 C1858.0001,3.9999084 1858.0001,9.999962 1858.0001,9.999962 C1858.0001,9.999962 1854.0,9.999962 1854.0,9.999962 C1854.0,9.999962 1854.0,3.9999084 1854.0,3.9999084 C1854.0,3.9999084 1853.0001,3.9999084 1853.0001,3.9999084 C1853.0001,3.9999084 1853.0001,9.999962 1853.0001,9.999962 C1853.0001,9.999962 1850.0,9.999962 1850.0,9.999962 C1850.0,9.999962 1850.0,1.9999924 1850.0,1.9999924 C1850.0,1.9999924 1848.0001,1.9999924 1848.0001,1.9999924 C1848.0001,1.9999924 1848.0001,9.999962 1848.0001,9.999962 C1848.0001,9.999962 1844.0,9.999962 1844.0,9.999962 C1844.0,9.999962 1844.0,3.9999084 1844.0,3.9999084 C1844.0,3.9999084 1842.9999,3.9999084 1842.9999,3.9999084 C1842.9999,3.9999084 1842.9999,9.999962 1842.9999,9.999962 C1842.9999,9.999962 1839.0,9.999962 1839.0,9.999962 C1839.0,9.999962 1839.0,3.9999084 1839.0,3.9999084 C1839.0,3.9999084 1837.9999,3.9999084 1837.9999,3.9999084 C1837.9999,3.9999084 1837.9999,9.999962 1837.9999,9.999962 C1837.9999,9.999962 1834.0,9.999962 1834.0,9.999962 C1834.0,9.999962 1834.0,3.9999084 1834.0,3.9999084 C1834.0,3.9999084 1832.9999,3.9999084 1832.9999,3.9999084 C1832.9999,3.9999084 1832.9999,9.999962 1832.9999,9.999962 C1832.9999,9.999962 1829.0,9.999962 1829.0,9.999962 C1829.0,9.999962 1829.0,3.9999084 1829.0,3.9999084 C1829.0,3.9999084 1827.9999,3.9999084 1827.9999,3.9999084 C1827.9999,3.9999084 1827.9999,9.999962 1827.9999,9.999962 C1827.9999,9.999962 1825.0,9.999962 1825.0,9.999962 C1825.0,9.999962 1825.0,1.9999924 1825.0,1.9999924 C1825.0,1.9999924 1822.9999,1.9999924 1822.9999,1.9999924 C1822.9999,1.9999924 1822.9999,9.999962 1822.9999,9.999962 C1822.9999,9.999962 1819.0,9.999962 1819.0,9.999962 C1819.0,9.999962 1819.0,3.9999084 1819.0,3.9999084 C1819.0,3.9999084 1817.9999,3.9999084 1817.9999,3.9999084 C1817.9999,3.9999084 1817.9999,9.999962 1817.9999,9.999962 C1817.9999,9.999962 1814.0,9.999962 1814.0,9.999962 C1814.0,9.999962 1814.0,3.9999084 1814.0,3.9999084 C1814.0,3.9999084 1813.0,3.9999084 1813.0,3.9999084 C1813.0,3.9999084 1813.0,9.999962 1813.0,9.999962 C1813.0,9.999962 1809.0,9.999962 1809.0,9.999962 C1809.0,9.999962 1809.0,3.9999084 1809.0,3.9999084 C1809.0,3.9999084 1808.0,3.9999084 1808.0,3.9999084 C1808.0,3.9999084 1808.0,9.999962 1808.0,9.999962 C1808.0,9.999962 1804.0,9.999962 1804.0,9.999962 C1804.0,9.999962 1804.0,3.9999084 1804.0,3.9999084 C1804.0,3.9999084 1803.0,3.9999084 1803.0,3.9999084 C1803.0,3.9999084 1803.0,9.999962 1803.0,9.999962 C1803.0,9.999962 1800.0,9.999962 1800.0,9.999962 C1800.0,9.999962 1800.0,1.9999924 1800.0,1.9999924 C1800.0,1.9999924 1798.0,1.9999924 1798.0,1.9999924 C1798.0,1.9999924 1798.0,9.999962 1798.0,9.999962 C1798.0,9.999962 1794.0001,9.999962 1794.0001,9.999962 C1794.0001,9.999962 1794.0001,3.9999084 1794.0001,3.9999084 C1794.0001,3.9999084 1793.0,3.9999084 1793.0,3.9999084 C1793.0,3.9999084 1793.0,9.999962 1793.0,9.999962 C1793.0,9.999962 1789.0001,9.999962 1789.0001,9.999962 C1789.0001,9.999962 1789.0001,3.9999084 1789.0001,3.9999084 C1789.0001,3.9999084 1788.0,3.9999084 1788.0,3.9999084 C1788.0,3.9999084 1788.0,9.999962 1788.0,9.999962 C1788.0,9.999962 1784.0001,9.999962 1784.0001,9.999962 C1784.0001,9.999962 1784.0001,3.9999084 1784.0001,3.9999084 C1784.0001,3.9999084 1783.0,3.9999084 1783.0,3.9999084 C1783.0,3.9999084 1783.0,9.999962 1783.0,9.999962 C1783.0,9.999962 1779.0001,9.999962 1779.0001,9.999962 C1779.0001,9.999962 1779.0001,3.9999084 1779.0001,3.9999084 C1779.0001,3.9999084 1778.0,3.9999084 1778.0,3.9999084 C1778.0,3.9999084 1778.0,9.999962 1778.0,9.999962 C1778.0,9.999962 1775.0,9.999962 1775.0,9.999962 C1775.0,9.999962 1775.0,1.9999924 1775.0,1.9999924 C1775.0,1.9999924 1773.0,1.9999924 1773.0,1.9999924 C1773.0,1.9999924 1773.0,9.999962 1773.0,9.999962 C1773.0,9.999962 1768.9999,9.999962 1768.9999,9.999962 C1768.9999,9.999962 1768.9999,3.9999084 1768.9999,3.9999084 C1768.9999,3.9999084 1768.0,3.9999084 1768.0,3.9999084 C1768.0,3.9999084 1768.0,9.999962 1768.0,9.999962 C1768.0,9.999962 1763.9999,9.999962 1763.9999,9.999962 C1763.9999,9.999962 1763.9999,3.9999084 1763.9999,3.9999084 C1763.9999,3.9999084 1763.0,3.9999084 1763.0,3.9999084 C1763.0,3.9999084 1763.0,9.999962 1763.0,9.999962 C1763.0,9.999962 1758.9999,9.999962 1758.9999,9.999962 C1758.9999,9.999962 1758.9999,3.9999084 1758.9999,3.9999084 C1758.9999,3.9999084 1758.0,3.9999084 1758.0,3.9999084 C1758.0,3.9999084 1758.0,9.999962 1758.0,9.999962 C1758.0,9.999962 1753.9999,9.999962 1753.9999,9.999962 C1753.9999,9.999962 1753.9999,3.9999084 1753.9999,3.9999084 C1753.9999,3.9999084 1752.9999,3.9999084 1752.9999,3.9999084 C1752.9999,3.9999084 1752.9999,9.999962 1752.9999,9.999962 C1752.9999,9.999962 1750.0,9.999962 1750.0,9.999962 C1750.0,9.999962 1750.0,1.9999924 1750.0,1.9999924 C1750.0,1.9999924 1747.9999,1.9999924 1747.9999,1.9999924 C1747.9999,1.9999924 1747.9999,9.999962 1747.9999,9.999962 C1747.9999,9.999962 1743.9999,9.999962 1743.9999,9.999962 C1743.9999,9.999962 1743.9999,3.9999084 1743.9999,3.9999084 C1743.9999,3.9999084 1742.9999,3.9999084 1742.9999,3.9999084 C1742.9999,3.9999084 1742.9999,9.999962 1742.9999,9.999962 C1742.9999,9.999962 1739.0,9.999962 1739.0,9.999962 C1739.0,9.999962 1739.0,3.9999084 1739.0,3.9999084 C1739.0,3.9999084 1737.9999,3.9999084 1737.9999,3.9999084 C1737.9999,3.9999084 1737.9999,9.999962 1737.9999,9.999962 C1737.9999,9.999962 1734.0,9.999962 1734.0,9.999962 C1734.0,9.999962 1734.0,3.9999084 1734.0,3.9999084 C1734.0,3.9999084 1732.9999,3.9999084 1732.9999,3.9999084 C1732.9999,3.9999084 1732.9999,9.999962 1732.9999,9.999962 C1732.9999,9.999962 1729.0,9.999962 1729.0,9.999962 C1729.0,9.999962 1729.0,3.9999084 1729.0,3.9999084 C1729.0,3.9999084 1727.9999,3.9999084 1727.9999,3.9999084 C1727.9999,3.9999084 1727.9999,9.999962 1727.9999,9.999962 C1727.9999,9.999962 1725.0001,9.999962 1725.0001,9.999962 C1725.0001,9.999962 1725.0001,1.9999924 1725.0001,1.9999924 C1725.0001,1.9999924 1722.9999,1.9999924 1722.9999,1.9999924 C1722.9999,1.9999924 1722.9999,9.999962 1722.9999,9.999962 C1722.9999,9.999962 1719.0,9.999962 1719.0,9.999962 C1719.0,9.999962 1719.0,3.9999084 1719.0,3.9999084 C1719.0,3.9999084 1717.9999,3.9999084 1717.9999,3.9999084 C1717.9999,3.9999084 1717.9999,9.999962 1717.9999,9.999962 C1717.9999,9.999962 1714.0,9.999962 1714.0,9.999962 C1714.0,9.999962 1714.0,3.9999084 1714.0,3.9999084 C1714.0,3.9999084 1713.0,3.9999084 1713.0,3.9999084 C1713.0,3.9999084 1713.0,9.999962 1713.0,9.999962 C1713.0,9.999962 1709.0,9.999962 1709.0,9.999962 C1709.0,9.999962 1709.0,3.9999084 1709.0,3.9999084 C1709.0,3.9999084 1708.0,3.9999084 1708.0,3.9999084 C1708.0,3.9999084 1708.0,9.999962 1708.0,9.999962 C1708.0,9.999962 1704.0,9.999962 1704.0,9.999962 C1704.0,9.999962 1704.0,3.9999084 1704.0,3.9999084 C1704.0,3.9999084 1703.0,3.9999084 1703.0,3.9999084 C1703.0,3.9999084 1703.0,9.999962 1703.0,9.999962 C1703.0,9.999962 1700.0,9.999962 1700.0,9.999962 C1700.0,9.999962 1700.0,1.9999924 1700.0,1.9999924 C1700.0,1.9999924 1698.0,1.9999924 1698.0,1.9999924 C1698.0,1.9999924 1698.0,9.999962 1698.0,9.999962 C1698.0,9.999962 1694.0,9.999962 1694.0,9.999962 C1694.0,9.999962 1694.0,3.9999084 1694.0,3.9999084 C1694.0,3.9999084 1693.0,3.9999084 1693.0,3.9999084 C1693.0,3.9999084 1693.0,9.999962 1693.0,9.999962 C1693.0,9.999962 1689.0,9.999962 1689.0,9.999962 C1689.0,9.999962 1689.0,3.9999084 1689.0,3.9999084 C1689.0,3.9999084 1688.0,3.9999084 1688.0,3.9999084 C1688.0,3.9999084 1688.0,9.999962 1688.0,9.999962 C1688.0,9.999962 1684.0,9.999962 1684.0,9.999962 C1684.0,9.999962 1684.0,3.9999084 1684.0,3.9999084 C1684.0,3.9999084 1683.0,3.9999084 1683.0,3.9999084 C1683.0,3.9999084 1683.0,9.999962 1683.0,9.999962 C1683.0,9.999962 1679.0,9.999962 1679.0,9.999962 C1679.0,9.999962 1679.0,3.9999084 1679.0,3.9999084 C1679.0,3.9999084 1678.0,3.9999084 1678.0,3.9999084 C1678.0,3.9999084 1678.0,9.999962 1678.0,9.999962 C1678.0,9.999962 1674.9999,9.999962 1674.9999,9.999962 C1674.9999,9.999962 1674.9999,1.9999924 1674.9999,1.9999924 C1674.9999,1.9999924 1673.0,1.9999924 1673.0,1.9999924 C1673.0,1.9999924 1673.0,9.999962 1673.0,9.999962 C1673.0,9.999962 1668.9999,9.999962 1668.9999,9.999962 C1668.9999,9.999962 1668.9999,3.9999084 1668.9999,3.9999084 C1668.9999,3.9999084 1668.0,3.9999084 1668.0,3.9999084 C1668.0,3.9999084 1668.0,9.999962 1668.0,9.999962 C1668.0,9.999962 1663.9999,9.999962 1663.9999,9.999962 C1663.9999,9.999962 1663.9999,3.9999084 1663.9999,3.9999084 C1663.9999,3.9999084 1663.0,3.9999084 1663.0,3.9999084 C1663.0,3.9999084 1663.0,9.999962 1663.0,9.999962 C1663.0,9.999962 1658.9999,9.999962 1658.9999,9.999962 C1658.9999,9.999962 1658.9999,3.9999084 1658.9999,3.9999084 C1658.9999,3.9999084 1657.9999,3.9999084 1657.9999,3.9999084 C1657.9999,3.9999084 1657.9999,9.999962 1657.9999,9.999962 C1657.9999,9.999962 1653.9999,9.999962 1653.9999,9.999962 C1653.9999,9.999962 1653.9999,3.9999084 1653.9999,3.9999084 C1653.9999,3.9999084 1652.9999,3.9999084 1652.9999,3.9999084 C1652.9999,3.9999084 1652.9999,9.999962 1652.9999,9.999962 C1652.9999,9.999962 1650.0,9.999962 1650.0,9.999962 C1650.0,9.999962 1650.0,1.9999924 1650.0,1.9999924 C1650.0,1.9999924 1647.9999,1.9999924 1647.9999,1.9999924 C1647.9999,1.9999924 1647.9999,9.999962 1647.9999,9.999962 C1647.9999,9.999962 1644.0,9.999962 1644.0,9.999962 C1644.0,9.999962 1644.0,3.9999084 1644.0,3.9999084 C1644.0,3.9999084 1642.9999,3.9999084 1642.9999,3.9999084 C1642.9999,3.9999084 1642.9999,9.999962 1642.9999,9.999962 C1642.9999,9.999962 1639.0,9.999962 1639.0,9.999962 C1639.0,9.999962 1639.0,3.9999084 1639.0,3.9999084 C1639.0,3.9999084 1637.9999,3.9999084 1637.9999,3.9999084 C1637.9999,3.9999084 1637.9999,9.999962 1637.9999,9.999962 C1637.9999,9.999962 1634.0,9.999962 1634.0,9.999962 C1634.0,9.999962 1634.0,3.9999084 1634.0,3.9999084 C1634.0,3.9999084 1632.9999,3.9999084 1632.9999,3.9999084 C1632.9999,3.9999084 1632.9999,9.999962 1632.9999,9.999962 C1632.9999,9.999962 1629.0,9.999962 1629.0,9.999962 C1629.0,9.999962 1629.0,3.9999084 1629.0,3.9999084 C1629.0,3.9999084 1628.0,3.9999084 1628.0,3.9999084 C1628.0,3.9999084 1628.0,9.999962 1628.0,9.999962 C1628.0,9.999962 1625.0,9.999962 1625.0,9.999962 C1625.0,9.999962 1625.0,1.9999924 1625.0,1.9999924 C1625.0,1.9999924 1623.0,1.9999924 1623.0,1.9999924 C1623.0,1.9999924 1623.0,9.999962 1623.0,9.999962 C1623.0,9.999962 1619.0,9.999962 1619.0,9.999962 C1619.0,9.999962 1619.0,3.9999084 1619.0,3.9999084 C1619.0,3.9999084 1618.0,3.9999084 1618.0,3.9999084 C1618.0,3.9999084 1618.0,9.999962 1618.0,9.999962 C1618.0,9.999962 1614.0,9.999962 1614.0,9.999962 C1614.0,9.999962 1614.0,3.9999084 1614.0,3.9999084 C1614.0,3.9999084 1613.0,3.9999084 1613.0,3.9999084 C1613.0,3.9999084 1613.0,9.999962 1613.0,9.999962 C1613.0,9.999962 1609.0,9.999962 1609.0,9.999962 C1609.0,9.999962 1609.0,3.9999084 1609.0,3.9999084 C1609.0,3.9999084 1608.0,3.9999084 1608.0,3.9999084 C1608.0,3.9999084 1608.0,9.999962 1608.0,9.999962 C1608.0,9.999962 1604.0,9.999962 1604.0,9.999962 C1604.0,9.999962 1604.0,3.9999084 1604.0,3.9999084 C1604.0,3.9999084 1603.0,3.9999084 1603.0,3.9999084 C1603.0,3.9999084 1603.0,9.999962 1603.0,9.999962 C1603.0,9.999962 1599.9999,9.999962 1599.9999,9.999962 C1599.9999,9.999962 1599.9999,1.9999924 1599.9999,1.9999924 C1599.9999,1.9999924 1598.0,1.9999924 1598.0,1.9999924 C1598.0,1.9999924 1598.0,9.999962 1598.0,9.999962 C1598.0,9.999962 1594.0,9.999962 1594.0,9.999962 C1594.0,9.999962 1594.0,3.9999084 1594.0,3.9999084 C1594.0,3.9999084 1593.0,3.9999084 1593.0,3.9999084 C1593.0,3.9999084 1593.0,9.999962 1593.0,9.999962 C1593.0,9.999962 1589.0,9.999962 1589.0,9.999962 C1589.0,9.999962 1589.0,3.9999084 1589.0,3.9999084 C1589.0,3.9999084 1588.0,3.9999084 1588.0,3.9999084 C1588.0,3.9999084 1588.0,9.999962 1588.0,9.999962 C1588.0,9.999962 1583.9999,9.999962 1583.9999,9.999962 C1583.9999,9.999962 1583.9999,3.9999084 1583.9999,3.9999084 C1583.9999,3.9999084 1583.0,3.9999084 1583.0,3.9999084 C1583.0,3.9999084 1583.0,9.999962 1583.0,9.999962 C1583.0,9.999962 1578.9999,9.999962 1578.9999,9.999962 C1578.9999,9.999962 1578.9999,3.9999084 1578.9999,3.9999084 C1578.9999,3.9999084 1578.0,3.9999084 1578.0,3.9999084 C1578.0,3.9999084 1578.0,9.999962 1578.0,9.999962 C1578.0,9.999962 1574.9999,9.999962 1574.9999,9.999962 C1574.9999,9.999962 1574.9999,1.9999924 1574.9999,1.9999924 C1574.9999,1.9999924 1573.0,1.9999924 1573.0,1.9999924 C1573.0,1.9999924 1573.0,9.999962 1573.0,9.999962 C1573.0,9.999962 1568.9999,9.999962 1568.9999,9.999962 C1568.9999,9.999962 1568.9999,3.9999084 1568.9999,3.9999084 C1568.9999,3.9999084 1568.0,3.9999084 1568.0,3.9999084 C1568.0,3.9999084 1568.0,9.999962 1568.0,9.999962 C1568.0,9.999962 1563.9999,9.999962 1563.9999,9.999962 C1563.9999,9.999962 1563.9999,3.9999084 1563.9999,3.9999084 C1563.9999,3.9999084 1562.9999,3.9999084 1562.9999,3.9999084 C1562.9999,3.9999084 1562.9999,9.999962 1562.9999,9.999962 C1562.9999,9.999962 1558.9999,9.999962 1558.9999,9.999962 C1558.9999,9.999962 1558.9999,3.9999084 1558.9999,3.9999084 C1558.9999,3.9999084 1557.9999,3.9999084 1557.9999,3.9999084 C1557.9999,3.9999084 1557.9999,9.999962 1557.9999,9.999962 C1557.9999,9.999962 1554.0,9.999962 1554.0,9.999962 C1554.0,9.999962 1554.0,3.9999084 1554.0,3.9999084 C1554.0,3.9999084 1552.9999,3.9999084 1552.9999,3.9999084 C1552.9999,3.9999084 1552.9999,9.999962 1552.9999,9.999962 C1552.9999,9.999962 1550.0,9.999962 1550.0,9.999962 C1550.0,9.999962 1550.0,1.9999924 1550.0,1.9999924 C1550.0,1.9999924 1547.9999,1.9999924 1547.9999,1.9999924 C1547.9999,1.9999924 1547.9999,9.999962 1547.9999,9.999962 C1547.9999,9.999962 1544.0,9.999962 1544.0,9.999962 C1544.0,9.999962 1544.0,3.9999084 1544.0,3.9999084 C1544.0,3.9999084 1542.9999,3.9999084 1542.9999,3.9999084 C1542.9999,3.9999084 1542.9999,9.999962 1542.9999,9.999962 C1542.9999,9.999962 1539.0,9.999962 1539.0,9.999962 C1539.0,9.999962 1539.0,3.9999084 1539.0,3.9999084 C1539.0,3.9999084 1537.9999,3.9999084 1537.9999,3.9999084 C1537.9999,3.9999084 1537.9999,9.999962 1537.9999,9.999962 C1537.9999,9.999962 1534.0,9.999962 1534.0,9.999962 C1534.0,9.999962 1534.0,3.9999084 1534.0,3.9999084 C1534.0,3.9999084 1533.0,3.9999084 1533.0,3.9999084 C1533.0,3.9999084 1533.0,9.999962 1533.0,9.999962 C1533.0,9.999962 1529.0,9.999962 1529.0,9.999962 C1529.0,9.999962 1529.0,3.9999084 1529.0,3.9999084 C1529.0,3.9999084 1528.0,3.9999084 1528.0,3.9999084 C1528.0,3.9999084 1528.0,9.999962 1528.0,9.999962 C1528.0,9.999962 1525.0,9.999962 1525.0,9.999962 C1525.0,9.999962 1525.0,1.9999924 1525.0,1.9999924 C1525.0,1.9999924 1523.0,1.9999924 1523.0,1.9999924 C1523.0,1.9999924 1523.0,9.999962 1523.0,9.999962 C1523.0,9.999962 1519.0,9.999962 1519.0,9.999962 C1519.0,9.999962 1519.0,3.9999084 1519.0,3.9999084 C1519.0,3.9999084 1518.0,3.9999084 1518.0,3.9999084 C1518.0,3.9999084 1518.0,9.999962 1518.0,9.999962 C1518.0,9.999962 1514.0,9.999962 1514.0,9.999962 C1514.0,9.999962 1514.0,3.9999084 1514.0,3.9999084 C1514.0,3.9999084 1513.0,3.9999084 1513.0,3.9999084 C1513.0,3.9999084 1513.0,9.999962 1513.0,9.999962 C1513.0,9.999962 1509.0,9.999962 1509.0,9.999962 C1509.0,9.999962 1509.0,3.9999084 1509.0,3.9999084 C1509.0,3.9999084 1508.0,3.9999084 1508.0,3.9999084 C1508.0,3.9999084 1508.0,9.999962 1508.0,9.999962 C1508.0,9.999962 1504.0,9.999962 1504.0,9.999962 C1504.0,9.999962 1504.0,3.9999084 1504.0,3.9999084 C1504.0,3.9999084 1503.0,3.9999084 1503.0,3.9999084 C1503.0,3.9999084 1503.0,9.999962 1503.0,9.999962 C1503.0,9.999962 1499.9999,9.999962 1499.9999,9.999962 C1499.9999,9.999962 1499.9999,1.9999924 1499.9999,1.9999924 C1499.9999,1.9999924 1498.0,1.9999924 1498.0,1.9999924 C1498.0,1.9999924 1498.0,9.999962 1498.0,9.999962 C1498.0,9.999962 1494.0,9.999962 1494.0,9.999962 C1494.0,9.999962 1494.0,3.9999084 1494.0,3.9999084 C1494.0,3.9999084 1493.0,3.9999084 1493.0,3.9999084 C1493.0,3.9999084 1493.0,9.999962 1493.0,9.999962 C1493.0,9.999962 1488.9999,9.999962 1488.9999,9.999962 C1488.9999,9.999962 1488.9999,3.9999084 1488.9999,3.9999084 C1488.9999,3.9999084 1488.0,3.9999084 1488.0,3.9999084 C1488.0,3.9999084 1488.0,9.999962 1488.0,9.999962 C1488.0,9.999962 1483.9999,9.999962 1483.9999,9.999962 C1483.9999,9.999962 1483.9999,3.9999084 1483.9999,3.9999084 C1483.9999,3.9999084 1483.0,3.9999084 1483.0,3.9999084 C1483.0,3.9999084 1483.0,9.999962 1483.0,9.999962 C1483.0,9.999962 1478.9999,9.999962 1478.9999,9.999962 C1478.9999,9.999962 1478.9999,3.9999084 1478.9999,3.9999084 C1478.9999,3.9999084 1478.0,3.9999084 1478.0,3.9999084 C1478.0,3.9999084 1478.0,9.999962 1478.0,9.999962 C1478.0,9.999962 1475.0,9.999962 1475.0,9.999962 C1475.0,9.999962 1475.0,1.9999924 1475.0,1.9999924 C1475.0,1.9999924 1473.0,1.9999924 1473.0,1.9999924 C1473.0,1.9999924 1473.0,9.999962 1473.0,9.999962 C1473.0,9.999962 1468.9999,9.999962 1468.9999,9.999962 C1468.9999,9.999962 1468.9999,3.9999084 1468.9999,3.9999084 C1468.9999,3.9999084 1467.9999,3.9999084 1467.9999,3.9999084 C1467.9999,3.9999084 1467.9999,9.999962 1467.9999,9.999962 C1467.9999,9.999962 1463.9999,9.999962 1463.9999,9.999962 C1463.9999,9.999962 1463.9999,3.9999084 1463.9999,3.9999084 C1463.9999,3.9999084 1462.9999,3.9999084 1462.9999,3.9999084 C1462.9999,3.9999084 1462.9999,9.999962 1462.9999,9.999962 C1462.9999,9.999962 1459.0,9.999962 1459.0,9.999962 C1459.0,9.999962 1459.0,3.9999084 1459.0,3.9999084 C1459.0,3.9999084 1457.9999,3.9999084 1457.9999,3.9999084 C1457.9999,3.9999084 1457.9999,9.999962 1457.9999,9.999962 C1457.9999,9.999962 1454.0,9.999962 1454.0,9.999962 C1454.0,9.999962 1454.0,3.9999084 1454.0,3.9999084 C1454.0,3.9999084 1452.9999,3.9999084 1452.9999,3.9999084 C1452.9999,3.9999084 1452.9999,9.999962 1452.9999,9.999962 C1452.9999,9.999962 1450.0,9.999962 1450.0,9.999962 C1450.0,9.999962 1450.0,1.9999924 1450.0,1.9999924 C1450.0,1.9999924 1447.9999,1.9999924 1447.9999,1.9999924 C1447.9999,1.9999924 1447.9999,9.999962 1447.9999,9.999962 C1447.9999,9.999962 1444.0,9.999962 1444.0,9.999962 C1444.0,9.999962 1444.0,3.9999084 1444.0,3.9999084 C1444.0,3.9999084 1442.9999,3.9999084 1442.9999,3.9999084 C1442.9999,3.9999084 1442.9999,9.999962 1442.9999,9.999962 C1442.9999,9.999962 1439.0,9.999962 1439.0,9.999962 C1439.0,9.999962 1439.0,3.9999084 1439.0,3.9999084 C1439.0,3.9999084 1438.0,3.9999084 1438.0,3.9999084 C1438.0,3.9999084 1438.0,9.999962 1438.0,9.999962 C1438.0,9.999962 1434.0,9.999962 1434.0,9.999962 C1434.0,9.999962 1434.0,3.9999084 1434.0,3.9999084 C1434.0,3.9999084 1433.0,3.9999084 1433.0,3.9999084 C1433.0,3.9999084 1433.0,9.999962 1433.0,9.999962 C1433.0,9.999962 1429.0,9.999962 1429.0,9.999962 C1429.0,9.999962 1429.0,4.999939 1429.0,4.999939 C1429.0,4.999939 1428.0,4.999939 1428.0,4.999939 C1428.0,4.999939 1428.0,9.999962 1428.0,9.999962 C1428.0,9.999962 1425.0,9.999962 1425.0,9.999962 C1425.0,9.999962 1425.0,1.9999924 1425.0,1.9999924 C1425.0,1.9999924 1423.0,1.9999924 1423.0,1.9999924 C1423.0,1.9999924 1423.0,9.999962 1423.0,9.999962 C1423.0,9.999962 1420.0,9.999962 1420.0,9.999962 C1420.0,9.999962 1420.0,3.9999084 1420.0,3.9999084 C1420.0,3.9999084 1419.0,3.9999084 1419.0,3.9999084 C1419.0,3.9999084 1419.0,9.999962 1419.0,9.999962 C1419.0,9.999962 1414.9999,9.999962 1414.9999,9.999962 C1414.9999,9.999962 1414.9999,3.9999084 1414.9999,3.9999084 C1414.9999,3.9999084 1414.0,3.9999084 1414.0,3.9999084 C1414.0,3.9999084 1414.0,9.999962 1414.0,9.999962 C1414.0,9.999962 1409.9999,9.999962 1409.9999,9.999962 C1409.9999,9.999962 1409.9999,3.9999084 1409.9999,3.9999084 C1409.9999,3.9999084 1409.0,3.9999084 1409.0,3.9999084 C1409.0,3.9999084 1409.0,9.999962 1409.0,9.999962 C1409.0,9.999962 1404.9999,9.999962 1404.9999,9.999962 C1404.9999,9.999962 1404.9999,3.9999084 1404.9999,3.9999084 C1404.9999,3.9999084 1404.0,3.9999084 1404.0,3.9999084 C1404.0,3.9999084 1404.0,9.999962 1404.0,9.999962 C1404.0,9.999962 1401.0,9.999962 1401.0,9.999962 C1401.0,9.999962 1401.0,1.9999924 1401.0,1.9999924 C1401.0,1.9999924 1399.0,1.9999924 1399.0,1.9999924 C1399.0,1.9999924 1399.0,9.999962 1399.0,9.999962 C1399.0,9.999962 1394.9999,9.999962 1394.9999,9.999962 C1394.9999,9.999962 1394.9999,3.9999084 1394.9999,3.9999084 C1394.9999,3.9999084 1393.9999,3.9999084 1393.9999,3.9999084 C1393.9999,3.9999084 1393.9999,9.999962 1393.9999,9.999962 C1393.9999,9.999962 1389.9999,9.999962 1389.9999,9.999962 C1389.9999,9.999962 1389.9999,3.9999084 1389.9999,3.9999084 C1389.9999,3.9999084 1388.9999,3.9999084 1388.9999,3.9999084 C1388.9999,3.9999084 1388.9999,9.999962 1388.9999,9.999962 C1388.9999,9.999962 1385.0,9.999962 1385.0,9.999962 C1385.0,9.999962 1385.0,3.9999084 1385.0,3.9999084 C1385.0,3.9999084 1383.9999,3.9999084 1383.9999,3.9999084 C1383.9999,3.9999084 1383.9999,9.999962 1383.9999,9.999962 C1383.9999,9.999962 1380.0,9.999962 1380.0,9.999962 C1380.0,9.999962 1380.0,3.9999084 1380.0,3.9999084 C1380.0,3.9999084 1378.9999,3.9999084 1378.9999,3.9999084 C1378.9999,3.9999084 1378.9999,9.999962 1378.9999,9.999962 C1378.9999,9.999962 1376.0,9.999962 1376.0,9.999962 C1376.0,9.999962 1376.0,1.9999924 1376.0,1.9999924 C1376.0,1.9999924 1373.9999,1.9999924 1373.9999,1.9999924 C1373.9999,1.9999924 1373.9999,9.999962 1373.9999,9.999962 C1373.9999,9.999962 1370.0,9.999962 1370.0,9.999962 C1370.0,9.999962 1370.0,3.9999084 1370.0,3.9999084 C1370.0,3.9999084 1368.9999,3.9999084 1368.9999,3.9999084 C1368.9999,3.9999084 1368.9999,9.999962 1368.9999,9.999962 C1368.9999,9.999962 1365.0,9.999962 1365.0,9.999962 C1365.0,9.999962 1365.0,3.9999084 1365.0,3.9999084 C1365.0,3.9999084 1364.0,3.9999084 1364.0,3.9999084 C1364.0,3.9999084 1364.0,9.999962 1364.0,9.999962 C1364.0,9.999962 1360.0,9.999962 1360.0,9.999962 C1360.0,9.999962 1360.0,3.9999084 1360.0,3.9999084 C1360.0,3.9999084 1359.0,3.9999084 1359.0,3.9999084 C1359.0,3.9999084 1359.0,9.999962 1359.0,9.999962 C1359.0,9.999962 1355.0,9.999962 1355.0,9.999962 C1355.0,9.999962 1355.0,3.9999084 1355.0,3.9999084 C1355.0,3.9999084 1354.0,3.9999084 1354.0,3.9999084 C1354.0,3.9999084 1354.0,9.999962 1354.0,9.999962 C1354.0,9.999962 1351.0,9.999962 1351.0,9.999962 C1351.0,9.999962 1351.0,1.9999924 1351.0,1.9999924 C1351.0,1.9999924 1349.0,1.9999924 1349.0,1.9999924 C1349.0,1.9999924 1349.0,9.999962 1349.0,9.999962 C1349.0,9.999962 1345.0,9.999962 1345.0,9.999962 C1345.0,9.999962 1345.0,3.9999084 1345.0,3.9999084 C1345.0,3.9999084 1344.0,3.9999084 1344.0,3.9999084 C1344.0,3.9999084 1344.0,9.999962 1344.0,9.999962 C1344.0,9.999962 1340.0,9.999962 1340.0,9.999962 C1340.0,9.999962 1340.0,3.9999084 1340.0,3.9999084 C1340.0,3.9999084 1339.0,3.9999084 1339.0,3.9999084 C1339.0,3.9999084 1339.0,9.999962 1339.0,9.999962 C1339.0,9.999962 1335.0,9.999962 1335.0,9.999962 C1335.0,9.999962 1335.0,3.9999084 1335.0,3.9999084 C1335.0,3.9999084 1334.0,3.9999084 1334.0,3.9999084 C1334.0,3.9999084 1334.0,9.999962 1334.0,9.999962 C1334.0,9.999962 1330.0,9.999962 1330.0,9.999962 C1330.0,9.999962 1330.0,3.9999084 1330.0,3.9999084 C1330.0,3.9999084 1329.0,3.9999084 1329.0,3.9999084 C1329.0,3.9999084 1329.0,9.999962 1329.0,9.999962 C1329.0,9.999962 1325.9999,9.999962 1325.9999,9.999962 C1325.9999,9.999962 1325.9999,1.9999924 1325.9999,1.9999924 C1325.9999,1.9999924 1324.0,1.9999924 1324.0,1.9999924 C1324.0,1.9999924 1324.0,9.999962 1324.0,9.999962 C1324.0,9.999962 1319.9999,9.999962 1319.9999,9.999962 C1319.9999,9.999962 1319.9999,3.9999084 1319.9999,3.9999084 C1319.9999,3.9999084 1319.0,3.9999084 1319.0,3.9999084 C1319.0,3.9999084 1319.0,9.999962 1319.0,9.999962 C1319.0,9.999962 1314.9999,9.999962 1314.9999,9.999962 C1314.9999,9.999962 1314.9999,3.9999084 1314.9999,3.9999084 C1314.9999,3.9999084 1314.0,3.9999084 1314.0,3.9999084 C1314.0,3.9999084 1314.0,9.999962 1314.0,9.999962 C1314.0,9.999962 1309.9999,9.999962 1309.9999,9.999962 C1309.9999,9.999962 1309.9999,3.9999084 1309.9999,3.9999084 C1309.9999,3.9999084 1309.0,3.9999084 1309.0,3.9999084 C1309.0,3.9999084 1309.0,9.999962 1309.0,9.999962 C1309.0,9.999962 1304.9999,9.999962 1304.9999,9.999962 C1304.9999,9.999962 1304.9999,3.9999084 1304.9999,3.9999084 C1304.9999,3.9999084 1304.0,3.9999084 1304.0,3.9999084 C1304.0,3.9999084 1304.0,9.999962 1304.0,9.999962 C1304.0,9.999962 1301.0,9.999962 1301.0,9.999962 C1301.0,9.999962 1301.0,1.9999924 1301.0,1.9999924 C1301.0,1.9999924 1298.9999,1.9999924 1298.9999,1.9999924 C1298.9999,1.9999924 1298.9999,9.999962 1298.9999,9.999962 C1298.9999,9.999962 1294.9999,9.999962 1294.9999,9.999962 C1294.9999,9.999962 1294.9999,3.9999084 1294.9999,3.9999084 C1294.9999,3.9999084 1293.9999,3.9999084 1293.9999,3.9999084 C1293.9999,3.9999084 1293.9999,9.999962 1293.9999,9.999962 C1293.9999,9.999962 1290.0,9.999962 1290.0,9.999962 C1290.0,9.999962 1290.0,3.9999084 1290.0,3.9999084 C1290.0,3.9999084 1288.9999,3.9999084 1288.9999,3.9999084 C1288.9999,3.9999084 1288.9999,9.999962 1288.9999,9.999962 C1288.9999,9.999962 1285.0,9.999962 1285.0,9.999962 C1285.0,9.999962 1285.0,3.9999084 1285.0,3.9999084 C1285.0,3.9999084 1283.9999,3.9999084 1283.9999,3.9999084 C1283.9999,3.9999084 1283.9999,9.999962 1283.9999,9.999962 C1283.9999,9.999962 1280.0,9.999962 1280.0,9.999962 C1280.0,9.999962 1280.0,3.9999084 1280.0,3.9999084 C1280.0,3.9999084 1278.9999,3.9999084 1278.9999,3.9999084 C1278.9999,3.9999084 1278.9999,9.999962 1278.9999,9.999962 C1278.9999,9.999962 1276.0,9.999962 1276.0,9.999962 C1276.0,9.999962 1276.0,1.9999924 1276.0,1.9999924 C1276.0,1.9999924 1273.9999,1.9999924 1273.9999,1.9999924 C1273.9999,1.9999924 1273.9999,9.999962 1273.9999,9.999962 C1273.9999,9.999962 1270.0,9.999962 1270.0,9.999962 C1270.0,9.999962 1270.0,3.9999084 1270.0,3.9999084 C1270.0,3.9999084 1269.0,3.9999084 1269.0,3.9999084 C1269.0,3.9999084 1269.0,9.999962 1269.0,9.999962 C1269.0,9.999962 1265.0,9.999962 1265.0,9.999962 C1265.0,9.999962 1265.0,3.9999084 1265.0,3.9999084 C1265.0,3.9999084 1264.0,3.9999084 1264.0,3.9999084 C1264.0,3.9999084 1264.0,9.999962 1264.0,9.999962 C1264.0,9.999962 1260.0,9.999962 1260.0,9.999962 C1260.0,9.999962 1260.0,3.9999084 1260.0,3.9999084 C1260.0,3.9999084 1259.0,3.9999084 1259.0,3.9999084 C1259.0,3.9999084 1259.0,9.999962 1259.0,9.999962 C1259.0,9.999962 1255.0,9.999962 1255.0,9.999962 C1255.0,9.999962 1255.0,3.9999084 1255.0,3.9999084 C1255.0,3.9999084 1254.0,3.9999084 1254.0,3.9999084 C1254.0,3.9999084 1254.0,9.999962 1254.0,9.999962 C1254.0,9.999962 1251.0,9.999962 1251.0,9.999962 C1251.0,9.999962 1251.0,1.9999924 1251.0,1.9999924 C1251.0,1.9999924 1249.0,1.9999924 1249.0,1.9999924 C1249.0,1.9999924 1249.0,9.999962 1249.0,9.999962 C1249.0,9.999962 1245.0,9.999962 1245.0,9.999962 C1245.0,9.999962 1245.0,3.9999084 1245.0,3.9999084 C1245.0,3.9999084 1244.0,3.9999084 1244.0,3.9999084 C1244.0,3.9999084 1244.0,9.999962 1244.0,9.999962 C1244.0,9.999962 1240.0,9.999962 1240.0,9.999962 C1240.0,9.999962 1240.0,3.9999084 1240.0,3.9999084 C1240.0,3.9999084 1239.0,3.9999084 1239.0,3.9999084 C1239.0,3.9999084 1239.0,9.999962 1239.0,9.999962 C1239.0,9.999962 1235.0,9.999962 1235.0,9.999962 C1235.0,9.999962 1235.0,3.9999084 1235.0,3.9999084 C1235.0,3.9999084 1234.0,3.9999084 1234.0,3.9999084 C1234.0,3.9999084 1234.0,9.999962 1234.0,9.999962 C1234.0,9.999962 1230.0,9.999962 1230.0,9.999962 C1230.0,9.999962 1230.0,3.9999084 1230.0,3.9999084 C1230.0,3.9999084 1229.0,3.9999084 1229.0,3.9999084 C1229.0,3.9999084 1229.0,9.999962 1229.0,9.999962 C1229.0,9.999962 1226.0,9.999962 1226.0,9.999962 C1226.0,9.999962 1226.0,1.9999924 1226.0,1.9999924 C1226.0,1.9999924 1224.0,1.9999924 1224.0,1.9999924 C1224.0,1.9999924 1224.0,9.999962 1224.0,9.999962 C1224.0,9.999962 1220.0,9.999962 1220.0,9.999962 C1220.0,9.999962 1220.0,3.9999084 1220.0,3.9999084 C1220.0,3.9999084 1219.0,3.9999084 1219.0,3.9999084 C1219.0,3.9999084 1219.0,9.999962 1219.0,9.999962 C1219.0,9.999962 1215.0,9.999962 1215.0,9.999962 C1215.0,9.999962 1215.0,3.9999084 1215.0,3.9999084 C1215.0,3.9999084 1214.0,3.9999084 1214.0,3.9999084 C1214.0,3.9999084 1214.0,9.999962 1214.0,9.999962 C1214.0,9.999962 1210.0,9.999962 1210.0,9.999962 C1210.0,9.999962 1210.0,3.9999084 1210.0,3.9999084 C1210.0,3.9999084 1209.0,3.9999084 1209.0,3.9999084 C1209.0,3.9999084 1209.0,9.999962 1209.0,9.999962 C1209.0,9.999962 1205.0,9.999962 1205.0,9.999962 C1205.0,9.999962 1205.0,3.9999084 1205.0,3.9999084 C1205.0,3.9999084 1204.0,3.9999084 1204.0,3.9999084 C1204.0,3.9999084 1204.0,9.999962 1204.0,9.999962 C1204.0,9.999962 1201.0,9.999962 1201.0,9.999962 C1201.0,9.999962 1201.0,1.9999924 1201.0,1.9999924 C1201.0,1.9999924 1199.0,1.9999924 1199.0,1.9999924 C1199.0,1.9999924 1199.0,9.999962 1199.0,9.999962 C1199.0,9.999962 1195.0,9.999962 1195.0,9.999962 C1195.0,9.999962 1195.0,3.9999084 1195.0,3.9999084 C1195.0,3.9999084 1194.0,3.9999084 1194.0,3.9999084 C1194.0,3.9999084 1194.0,9.999962 1194.0,9.999962 C1194.0,9.999962 1190.0,9.999962 1190.0,9.999962 C1190.0,9.999962 1190.0,3.9999084 1190.0,3.9999084 C1190.0,3.9999084 1189.0,3.9999084 1189.0,3.9999084 C1189.0,3.9999084 1189.0,9.999962 1189.0,9.999962 C1189.0,9.999962 1185.0,9.999962 1185.0,9.999962 C1185.0,9.999962 1185.0,3.9999084 1185.0,3.9999084 C1185.0,3.9999084 1184.0,3.9999084 1184.0,3.9999084 C1184.0,3.9999084 1184.0,9.999962 1184.0,9.999962 C1184.0,9.999962 1180.0,9.999962 1180.0,9.999962 C1180.0,9.999962 1180.0,3.9999084 1180.0,3.9999084 C1180.0,3.9999084 1179.0,3.9999084 1179.0,3.9999084 C1179.0,3.9999084 1179.0,9.999962 1179.0,9.999962 C1179.0,9.999962 1176.0,9.999962 1176.0,9.999962 C1176.0,9.999962 1176.0,1.9999924 1176.0,1.9999924 C1176.0,1.9999924 1174.0,1.9999924 1174.0,1.9999924 C1174.0,1.9999924 1174.0,9.999962 1174.0,9.999962 C1174.0,9.999962 1170.0,9.999962 1170.0,9.999962 C1170.0,9.999962 1170.0,3.9999084 1170.0,3.9999084 C1170.0,3.9999084 1169.0,3.9999084 1169.0,3.9999084 C1169.0,3.9999084 1169.0,9.999962 1169.0,9.999962 C1169.0,9.999962 1165.0,9.999962 1165.0,9.999962 C1165.0,9.999962 1165.0,3.9999084 1165.0,3.9999084 C1165.0,3.9999084 1164.0,3.9999084 1164.0,3.9999084 C1164.0,3.9999084 1164.0,9.999962 1164.0,9.999962 C1164.0,9.999962 1160.0,9.999962 1160.0,9.999962 C1160.0,9.999962 1160.0,3.9999084 1160.0,3.9999084 C1160.0,3.9999084 1159.0,3.9999084 1159.0,3.9999084 C1159.0,3.9999084 1159.0,9.999962 1159.0,9.999962 C1159.0,9.999962 1155.0,9.999962 1155.0,9.999962 C1155.0,9.999962 1155.0,3.9999084 1155.0,3.9999084 C1155.0,3.9999084 1154.0,3.9999084 1154.0,3.9999084 C1154.0,3.9999084 1154.0,9.999962 1154.0,9.999962 C1154.0,9.999962 1151.0,9.999962 1151.0,9.999962 C1151.0,9.999962 1151.0,1.9999924 1151.0,1.9999924 C1151.0,1.9999924 1149.0,1.9999924 1149.0,1.9999924 C1149.0,1.9999924 1149.0,9.999962 1149.0,9.999962 C1149.0,9.999962 1145.0,9.999962 1145.0,9.999962 C1145.0,9.999962 1145.0,3.9999084 1145.0,3.9999084 C1145.0,3.9999084 1144.0,3.9999084 1144.0,3.9999084 C1144.0,3.9999084 1144.0,9.999962 1144.0,9.999962 C1144.0,9.999962 1140.0,9.999962 1140.0,9.999962 C1140.0,9.999962 1140.0,3.9999084 1140.0,3.9999084 C1140.0,3.9999084 1139.0,3.9999084 1139.0,3.9999084 C1139.0,3.9999084 1139.0,9.999962 1139.0,9.999962 C1139.0,9.999962 1135.0,9.999962 1135.0,9.999962 C1135.0,9.999962 1135.0,3.9999084 1135.0,3.9999084 C1135.0,3.9999084 1134.0,3.9999084 1134.0,3.9999084 C1134.0,3.9999084 1134.0,9.999962 1134.0,9.999962 C1134.0,9.999962 1130.0,9.999962 1130.0,9.999962 C1130.0,9.999962 1130.0,3.9999084 1130.0,3.9999084 C1130.0,3.9999084 1129.0,3.9999084 1129.0,3.9999084 C1129.0,3.9999084 1129.0,9.999962 1129.0,9.999962 C1129.0,9.999962 1126.0,9.999962 1126.0,9.999962 C1126.0,9.999962 1126.0,1.9999924 1126.0,1.9999924 C1126.0,1.9999924 1124.0,1.9999924 1124.0,1.9999924 C1124.0,1.9999924 1124.0,9.999962 1124.0,9.999962 C1124.0,9.999962 1120.0,9.999962 1120.0,9.999962 C1120.0,9.999962 1120.0,3.9999084 1120.0,3.9999084 C1120.0,3.9999084 1119.0,3.9999084 1119.0,3.9999084 C1119.0,3.9999084 1119.0,9.999962 1119.0,9.999962 C1119.0,9.999962 1115.0,9.999962 1115.0,9.999962 C1115.0,9.999962 1115.0,3.9999084 1115.0,3.9999084 C1115.0,3.9999084 1114.0,3.9999084 1114.0,3.9999084 C1114.0,3.9999084 1114.0,9.999962 1114.0,9.999962 C1114.0,9.999962 1110.0,9.999962 1110.0,9.999962 C1110.0,9.999962 1110.0,3.9999084 1110.0,3.9999084 C1110.0,3.9999084 1109.0,3.9999084 1109.0,3.9999084 C1109.0,3.9999084 1109.0,9.999962 1109.0,9.999962 C1109.0,9.999962 1105.0,9.999962 1105.0,9.999962 C1105.0,9.999962 1105.0,3.9999084 1105.0,3.9999084 C1105.0,3.9999084 1104.0,3.9999084 1104.0,3.9999084 C1104.0,3.9999084 1104.0,9.999962 1104.0,9.999962 C1104.0,9.999962 1101.0,9.999962 1101.0,9.999962 C1101.0,9.999962 1101.0,1.9999924 1101.0,1.9999924 C1101.0,1.9999924 1099.0,1.9999924 1099.0,1.9999924 C1099.0,1.9999924 1099.0,9.999962 1099.0,9.999962 C1099.0,9.999962 1095.0,9.999962 1095.0,9.999962 C1095.0,9.999962 1095.0,3.9999084 1095.0,3.9999084 C1095.0,3.9999084 1094.0,3.9999084 1094.0,3.9999084 C1094.0,3.9999084 1094.0,9.999962 1094.0,9.999962 C1094.0,9.999962 1090.0,9.999962 1090.0,9.999962 C1090.0,9.999962 1090.0,3.9999084 1090.0,3.9999084 C1090.0,3.9999084 1089.0,3.9999084 1089.0,3.9999084 C1089.0,3.9999084 1089.0,9.999962 1089.0,9.999962 C1089.0,9.999962 1085.0,9.999962 1085.0,9.999962 C1085.0,9.999962 1085.0,3.9999084 1085.0,3.9999084 C1085.0,3.9999084 1084.0,3.9999084 1084.0,3.9999084 C1084.0,3.9999084 1084.0,9.999962 1084.0,9.999962 C1084.0,9.999962 1080.0,9.999962 1080.0,9.999962 C1080.0,9.999962 1080.0,3.9999084 1080.0,3.9999084 C1080.0,3.9999084 1079.0,3.9999084 1079.0,3.9999084 C1079.0,3.9999084 1079.0,9.999962 1079.0,9.999962 C1079.0,9.999962 1076.0,9.999962 1076.0,9.999962 C1076.0,9.999962 1076.0,1.9999924 1076.0,1.9999924 C1076.0,1.9999924 1074.0,1.9999924 1074.0,1.9999924 C1074.0,1.9999924 1074.0,9.999962 1074.0,9.999962 C1074.0,9.999962 1070.0,9.999962 1070.0,9.999962 C1070.0,9.999962 1070.0,3.9999084 1070.0,3.9999084 C1070.0,3.9999084 1069.0,3.9999084 1069.0,3.9999084 C1069.0,3.9999084 1069.0,9.999962 1069.0,9.999962 C1069.0,9.999962 1065.0,9.999962 1065.0,9.999962 C1065.0,9.999962 1065.0,3.9999084 1065.0,3.9999084 C1065.0,3.9999084 1064.0,3.9999084 1064.0,3.9999084 C1064.0,3.9999084 1064.0,9.999962 1064.0,9.999962 C1064.0,9.999962 1060.0,9.999962 1060.0,9.999962 C1060.0,9.999962 1060.0,3.9999084 1060.0,3.9999084 C1060.0,3.9999084 1059.0,3.9999084 1059.0,3.9999084 C1059.0,3.9999084 1059.0,9.999962 1059.0,9.999962 C1059.0,9.999962 1055.0,9.999962 1055.0,9.999962 C1055.0,9.999962 1055.0,3.9999084 1055.0,3.9999084 C1055.0,3.9999084 1054.0,3.9999084 1054.0,3.9999084 C1054.0,3.9999084 1054.0,9.999962 1054.0,9.999962 C1054.0,9.999962 1051.0,9.999962 1051.0,9.999962 C1051.0,9.999962 1051.0,1.9999924 1051.0,1.9999924 C1051.0,1.9999924 1049.0,1.9999924 1049.0,1.9999924 C1049.0,1.9999924 1049.0,9.999962 1049.0,9.999962 C1049.0,9.999962 1045.0,9.999962 1045.0,9.999962 C1045.0,9.999962 1045.0,3.9999084 1045.0,3.9999084 C1045.0,3.9999084 1044.0,3.9999084 1044.0,3.9999084 C1044.0,3.9999084 1044.0,9.999962 1044.0,9.999962 C1044.0,9.999962 1040.0,9.999962 1040.0,9.999962 C1040.0,9.999962 1040.0,3.9999084 1040.0,3.9999084 C1040.0,3.9999084 1039.0,3.9999084 1039.0,3.9999084 C1039.0,3.9999084 1039.0,9.999962 1039.0,9.999962 C1039.0,9.999962 1035.0,9.999962 1035.0,9.999962 C1035.0,9.999962 1035.0,3.9999084 1035.0,3.9999084 C1035.0,3.9999084 1034.0,3.9999084 1034.0,3.9999084 C1034.0,3.9999084 1034.0,9.999962 1034.0,9.999962 C1034.0,9.999962 1030.0,9.999962 1030.0,9.999962 C1030.0,9.999962 1030.0,3.9999084 1030.0,3.9999084 C1030.0,3.9999084 1029.0,3.9999084 1029.0,3.9999084 C1029.0,3.9999084 1029.0,9.999962 1029.0,9.999962 C1029.0,9.999962 1026.0,9.999962 1026.0,9.999962 C1026.0,9.999962 1026.0,1.9999924 1026.0,1.9999924 C1026.0,1.9999924 1024.0,1.9999924 1024.0,1.9999924 C1024.0,1.9999924 1024.0,9.999962 1024.0,9.999962 C1024.0,9.999962 1019.99994,9.999962 1019.99994,9.999962 C1019.99994,9.999962 1019.99994,3.9999084 1019.99994,3.9999084 C1019.99994,3.9999084 1018.99994,3.9999084 1018.99994,3.9999084 C1018.99994,3.9999084 1018.99994,9.999962 1018.99994,9.999962 C1018.99994,9.999962 1014.99994,9.999962 1014.99994,9.999962 C1014.99994,9.999962 1014.99994,3.9999084 1014.99994,3.9999084 C1014.99994,3.9999084 1013.99994,3.9999084 1013.99994,3.9999084 C1013.99994,3.9999084 1013.99994,9.999962 1013.99994,9.999962 C1013.99994,9.999962 1009.99994,9.999962 1009.99994,9.999962 C1009.99994,9.999962 1009.99994,3.9999084 1009.99994,3.9999084 C1009.99994,3.9999084 1008.99994,3.9999084 1008.99994,3.9999084 C1008.99994,3.9999084 1008.99994,9.999962 1008.99994,9.999962 C1008.99994,9.999962 1004.99994,9.999962 1004.99994,9.999962 C1004.99994,9.999962 1004.99994,3.9999084 1004.99994,3.9999084 C1004.99994,3.9999084 1003.99994,3.9999084 1003.99994,3.9999084 C1003.99994,3.9999084 1003.99994,9.999962 1003.99994,9.999962 C1003.99994,9.999962 1000.99994,9.999962 1000.99994,9.999962 C1000.99994,9.999962 1000.99994,1.9999924 1000.99994,1.9999924 C1000.99994,1.9999924 998.99994,1.9999924 998.99994,1.9999924 C998.99994,1.9999924 998.99994,9.999962 998.99994,9.999962 C998.99994,9.999962 994.99994,9.999962 994.99994,9.999962 C994.99994,9.999962 994.99994,3.9999084 994.99994,3.9999084 C994.99994,3.9999084 993.99994,3.9999084 993.99994,3.9999084 C993.99994,3.9999084 993.99994,9.999962 993.99994,9.999962 C993.99994,9.999962 989.99994,9.999962 989.99994,9.999962 C989.99994,9.999962 989.99994,3.9999084 989.99994,3.9999084 C989.99994,3.9999084 988.99994,3.9999084 988.99994,3.9999084 C988.99994,3.9999084 988.99994,9.999962 988.99994,9.999962 C988.99994,9.999962 984.99994,9.999962 984.99994,9.999962 C984.99994,9.999962 984.99994,3.9999084 984.99994,3.9999084 C984.99994,3.9999084 983.99994,3.9999084 983.99994,3.9999084 C983.99994,3.9999084 983.99994,9.999962 983.99994,9.999962 C983.99994,9.999962 979.99994,9.999962 979.99994,9.999962 C979.99994,9.999962 979.99994,3.9999084 979.99994,3.9999084 C979.99994,3.9999084 978.99994,3.9999084 978.99994,3.9999084 C978.99994,3.9999084 978.99994,9.999962 978.99994,9.999962 C978.99994,9.999962 976.0,9.999962 976.0,9.999962 C976.0,9.999962 976.0,1.9999924 976.0,1.9999924 C976.0,1.9999924 973.99994,1.9999924 973.99994,1.9999924 C973.99994,1.9999924 973.99994,9.999962 973.99994,9.999962 C973.99994,9.999962 970.0,9.999962 970.0,9.999962 C970.0,9.999962 970.0,3.9999084 970.0,3.9999084 C970.0,3.9999084 968.99994,3.9999084 968.99994,3.9999084 C968.99994,3.9999084 968.99994,9.999962 968.99994,9.999962 C968.99994,9.999962 965.0,9.999962 965.0,9.999962 C965.0,9.999962 965.0,3.9999084 965.0,3.9999084 C965.0,3.9999084 963.99994,3.9999084 963.99994,3.9999084 C963.99994,3.9999084 963.99994,9.999962 963.99994,9.999962 C963.99994,9.999962 960.0,9.999962 960.0,9.999962 C960.0,9.999962 960.0,3.9999084 960.0,3.9999084 C960.0,3.9999084 959.0,3.9999084 959.0,3.9999084 C959.0,3.9999084 959.0,9.999962 959.0,9.999962 C959.0,9.999962 955.0,9.999962 955.0,9.999962 C955.0,9.999962 955.0,4.999939 955.0,4.999939 C955.0,4.999939 954.0,4.999939 954.0,4.999939 C954.0,4.999939 954.0,9.999962 954.0,9.999962 C954.0,9.999962 950.99994,9.999962 950.99994,9.999962 C950.99994,9.999962 950.99994,1.9999924 950.99994,1.9999924 Z"/>
</svg>