<svg xmlns="http://www.w3.org/2000/svg"
 xmlns:xlink="http://www.w3.org/1999/xlink"
 width="1920px" height="19x"  viewBox="0 0 1920 22">
<path fill-rule="evenodd" fill-opacity="0.2" fill="#ffffff"
 d="M950.9999,4.0 C950.9999,4.0 950.9999,21.0 950.9999,21.0 C950.9999,21.0 955.0,21.0 955.0,21.0 C955.0,21.0 955.0,4.0 955.0,4.0 C955.0,4.0 961.99994,4.0 961.99994,4.0 C961.99994,4.0 961.99994,16.0 961.99994,16.0 C961.99994,16.0 964.0,16.0 964.0,16.0 C964.0,16.0 964.0,4.0 964.0,4.0 C964.0,4.0 971.9999,4.0 971.9999,4.0 C971.9999,4.0 971.9999,16.0 971.9999,16.0 C971.9999,16.0 973.99994,16.0 973.99994,16.0 C973.99994,16.0 973.99994,4.0 973.99994,4.0 C973.99994,4.0 982.0,4.0 982.0,4.0 C982.0,4.0 982.0,16.0 982.0,16.0 C982.0,16.0 983.99994,16.0 983.99994,16.0 C983.99994,16.0 983.99994,4.0 983.99994,4.0 C983.99994,4.0 992.0,4.0 992.0,4.0 C992.0,4.0 992.0,16.0 992.0,16.0 C992.0,16.0 993.99994,16.0 993.99994,16.0 C993.99994,16.0 993.99994,4.0 993.99994,4.0 C993.99994,4.0 1001.0,4.0 1001.0,4.0 C1001.0,4.0 1001.0,21.0 1001.0,21.0 C1001.0,21.0 1004.99994,21.0 1004.99994,21.0 C1004.99994,21.0 1004.99994,4.0 1004.99994,4.0 C1004.99994,4.0 1012.0,4.0 1012.0,4.0 C1012.0,4.0 1012.0,16.0 1012.0,16.0 C1012.0,16.0 1014.0,16.0 1014.0,16.0 C1014.0,16.0 1014.0,4.0 1014.0,4.0 C1014.0,4.0 1022.0,4.0 1022.0,4.0 C1022.0,4.0 1022.0,16.0 1022.0,16.0 C1022.0,16.0 1024.0,16.0 1024.0,16.0 C1024.0,16.0 1024.0,4.0 1024.0,4.0 C1024.0,4.0 1032.0,4.0 1032.0,4.0 C1032.0,4.0 1032.0,16.0 1032.0,16.0 C1032.0,16.0 1034.0,16.0 1034.0,16.0 C1034.0,16.0 1034.0,4.0 1034.0,4.0 C1034.0,4.0 1042.0,4.0 1042.0,4.0 C1042.0,4.0 1042.0,16.0 1042.0,16.0 C1042.0,16.0 1044.0,16.0 1044.0,16.0 C1044.0,16.0 1044.0,4.0 1044.0,4.0 C1044.0,4.0 1051.0,4.0 1051.0,4.0 C1051.0,4.0 1051.0,21.0 1051.0,21.0 C1051.0,21.0 1055.0,21.0 1055.0,21.0 C1055.0,21.0 1055.0,4.0 1055.0,4.0 C1055.0,4.0 1061.9999,4.0 1061.9999,4.0 C1061.9999,4.0 1061.9999,16.0 1061.9999,16.0 C1061.9999,16.0 1064.0,16.0 1064.0,16.0 C1064.0,16.0 1064.0,4.0 1064.0,4.0 C1064.0,4.0 1072.0,4.0 1072.0,4.0 C1072.0,4.0 1072.0,16.0 1072.0,16.0 C1072.0,16.0 1074.0,16.0 1074.0,16.0 C1074.0,16.0 1074.0,4.0 1074.0,4.0 C1074.0,4.0 1082.0,4.0 1082.0,4.0 C1082.0,4.0 1082.0,16.0 1082.0,16.0 C1082.0,16.0 1084.0,16.0 1084.0,16.0 C1084.0,16.0 1084.0,4.0 1084.0,4.0 C1084.0,4.0 1092.0,4.0 1092.0,4.0 C1092.0,4.0 1092.0,16.0 1092.0,16.0 C1092.0,16.0 1093.9999,16.0 1093.9999,16.0 C1093.9999,16.0 1093.9999,4.0 1093.9999,4.0 C1093.9999,4.0 1101.0,4.0 1101.0,4.0 C1101.0,4.0 1101.0,21.0 1101.0,21.0 C1101.0,21.0 1105.0,21.0 1105.0,21.0 C1105.0,21.0 1105.0,4.0 1105.0,4.0 C1105.0,4.0 1112.0,4.0 1112.0,4.0 C1112.0,4.0 1112.0,16.0 1112.0,16.0 C1112.0,16.0 1114.0,16.0 1114.0,16.0 C1114.0,16.0 1114.0,4.0 1114.0,4.0 C1114.0,4.0 1122.0,4.0 1122.0,4.0 C1122.0,4.0 1122.0,16.0 1122.0,16.0 C1122.0,16.0 1124.0,16.0 1124.0,16.0 C1124.0,16.0 1124.0,4.0 1124.0,4.0 C1124.0,4.0 1132.0,4.0 1132.0,4.0 C1132.0,4.0 1132.0,16.0 1132.0,16.0 C1132.0,16.0 1134.0,16.0 1134.0,16.0 C1134.0,16.0 1134.0,4.0 1134.0,4.0 C1134.0,4.0 1142.0,4.0 1142.0,4.0 C1142.0,4.0 1142.0,16.0 1142.0,16.0 C1142.0,16.0 1144.0,16.0 1144.0,16.0 C1144.0,16.0 1144.0,4.0 1144.0,4.0 C1144.0,4.0 1151.0,4.0 1151.0,4.0 C1151.0,4.0 1151.0,21.0 1151.0,21.0 C1151.0,21.0 1155.0,21.0 1155.0,21.0 C1155.0,21.0 1155.0,4.0 1155.0,4.0 C1155.0,4.0 1161.9999,4.0 1161.9999,4.0 C1161.9999,4.0 1161.9999,16.0 1161.9999,16.0 C1161.9999,16.0 1164.0,16.0 1164.0,16.0 C1164.0,16.0 1164.0,4.0 1164.0,4.0 C1164.0,4.0 1172.0,4.0 1172.0,4.0 C1172.0,4.0 1172.0,16.0 1172.0,16.0 C1172.0,16.0 1174.0,16.0 1174.0,16.0 C1174.0,16.0 1174.0,4.0 1174.0,4.0 C1174.0,4.0 1182.0,4.0 1182.0,4.0 C1182.0,4.0 1182.0,16.0 1182.0,16.0 C1182.0,16.0 1184.0,16.0 1184.0,16.0 C1184.0,16.0 1184.0,4.0 1184.0,4.0 C1184.0,4.0 1192.0,4.0 1192.0,4.0 C1192.0,4.0 1192.0,16.0 1192.0,16.0 C1192.0,16.0 1194.0,16.0 1194.0,16.0 C1194.0,16.0 1194.0,4.0 1194.0,4.0 C1194.0,4.0 1201.0,4.0 1201.0,4.0 C1201.0,4.0 1201.0,21.0 1201.0,21.0 C1201.0,21.0 1205.0,21.0 1205.0,21.0 C1205.0,21.0 1205.0,4.0 1205.0,4.0 C1205.0,4.0 1212.0,4.0 1212.0,4.0 C1212.0,4.0 1212.0,16.0 1212.0,16.0 C1212.0,16.0 1214.0,16.0 1214.0,16.0 C1214.0,16.0 1214.0,4.0 1214.0,4.0 C1214.0,4.0 1222.0,4.0 1222.0,4.0 C1222.0,4.0 1222.0,16.0 1222.0,16.0 C1222.0,16.0 1224.0,16.0 1224.0,16.0 C1224.0,16.0 1224.0,4.0 1224.0,4.0 C1224.0,4.0 1232.0,4.0 1232.0,4.0 C1232.0,4.0 1232.0,16.0 1232.0,16.0 C1232.0,16.0 1234.0,16.0 1234.0,16.0 C1234.0,16.0 1234.0,4.0 1234.0,4.0 C1234.0,4.0 1242.0,4.0 1242.0,4.0 C1242.0,4.0 1242.0,16.0 1242.0,16.0 C1242.0,16.0 1244.0,16.0 1244.0,16.0 C1244.0,16.0 1244.0,4.0 1244.0,4.0 C1244.0,4.0 1251.0,4.0 1251.0,4.0 C1251.0,4.0 1251.0,21.0 1251.0,21.0 C1251.0,21.0 1255.0,21.0 1255.0,21.0 C1255.0,21.0 1255.0,4.0 1255.0,4.0 C1255.0,4.0 1262.0,4.0 1262.0,4.0 C1262.0,4.0 1262.0,16.0 1262.0,16.0 C1262.0,16.0 1264.0,16.0 1264.0,16.0 C1264.0,16.0 1264.0,4.0 1264.0,4.0 C1264.0,4.0 1272.0,4.0 1272.0,4.0 C1272.0,4.0 1272.0,16.0 1272.0,16.0 C1272.0,16.0 1274.0,16.0 1274.0,16.0 C1274.0,16.0 1274.0,4.0 1274.0,4.0 C1274.0,4.0 1282.0,4.0 1282.0,4.0 C1282.0,4.0 1282.0,16.0 1282.0,16.0 C1282.0,16.0 1284.0,16.0 1284.0,16.0 C1284.0,16.0 1284.0,4.0 1284.0,4.0 C1284.0,4.0 1292.0,4.0 1292.0,4.0 C1292.0,4.0 1292.0,16.0 1292.0,16.0 C1292.0,16.0 1294.0,16.0 1294.0,16.0 C1294.0,16.0 1294.0,4.0 1294.0,4.0 C1294.0,4.0 1301.0,4.0 1301.0,4.0 C1301.0,4.0 1301.0,21.0 1301.0,21.0 C1301.0,21.0 1305.0,21.0 1305.0,21.0 C1305.0,21.0 1305.0,4.0 1305.0,4.0 C1305.0,4.0 1312.0,4.0 1312.0,4.0 C1312.0,4.0 1312.0,16.0 1312.0,16.0 C1312.0,16.0 1314.0,16.0 1314.0,16.0 C1314.0,16.0 1314.0,4.0 1314.0,4.0 C1314.0,4.0 1322.0,4.0 1322.0,4.0 C1322.0,4.0 1322.0,16.0 1322.0,16.0 C1322.0,16.0 1324.0,16.0 1324.0,16.0 C1324.0,16.0 1324.0,4.0 1324.0,4.0 C1324.0,4.0 1332.0,4.0 1332.0,4.0 C1332.0,4.0 1332.0,16.0 1332.0,16.0 C1332.0,16.0 1334.0,16.0 1334.0,16.0 C1334.0,16.0 1334.0,4.0 1334.0,4.0 C1334.0,4.0 1342.0,4.0 1342.0,4.0 C1342.0,4.0 1342.0,16.0 1342.0,16.0 C1342.0,16.0 1344.0,16.0 1344.0,16.0 C1344.0,16.0 1344.0,4.0 1344.0,4.0 C1344.0,4.0 1351.0,4.0 1351.0,4.0 C1351.0,4.0 1351.0,21.0 1351.0,21.0 C1351.0,21.0 1355.0,21.0 1355.0,21.0 C1355.0,21.0 1355.0,4.0 1355.0,4.0 C1355.0,4.0 1362.0,4.0 1362.0,4.0 C1362.0,4.0 1362.0,16.0 1362.0,16.0 C1362.0,16.0 1364.0,16.0 1364.0,16.0 C1364.0,16.0 1364.0,4.0 1364.0,4.0 C1364.0,4.0 1372.0,4.0 1372.0,4.0 C1372.0,4.0 1372.0,16.0 1372.0,16.0 C1372.0,16.0 1374.0,16.0 1374.0,16.0 C1374.0,16.0 1374.0,4.0 1374.0,4.0 C1374.0,4.0 1382.0,4.0 1382.0,4.0 C1382.0,4.0 1382.0,16.0 1382.0,16.0 C1382.0,16.0 1384.0,16.0 1384.0,16.0 C1384.0,16.0 1384.0,4.0 1384.0,4.0 C1384.0,4.0 1392.0,4.0 1392.0,4.0 C1392.0,4.0 1392.0,16.0 1392.0,16.0 C1392.0,16.0 1394.0,16.0 1394.0,16.0 C1394.0,16.0 1394.0,4.0 1394.0,4.0 C1394.0,4.0 1401.0,4.0 1401.0,4.0 C1401.0,4.0 1401.0,21.0 1401.0,21.0 C1401.0,21.0 1405.0,21.0 1405.0,21.0 C1405.0,21.0 1405.0,4.0 1405.0,4.0 C1405.0,4.0 1412.0,4.0 1412.0,4.0 C1412.0,4.0 1412.0,16.0 1412.0,16.0 C1412.0,16.0 1414.0,16.0 1414.0,16.0 C1414.0,16.0 1414.0,4.0 1414.0,4.0 C1414.0,4.0 1422.0,4.0 1422.0,4.0 C1422.0,4.0 1422.0,16.0 1422.0,16.0 C1422.0,16.0 1424.0,16.0 1424.0,16.0 C1424.0,16.0 1424.0,4.0 1424.0,4.0 C1424.0,4.0 1432.0,4.0 1432.0,4.0 C1432.0,4.0 1432.0,16.0 1432.0,16.0 C1432.0,16.0 1434.0,16.0 1434.0,16.0 C1434.0,16.0 1434.0,4.0 1434.0,4.0 C1434.0,4.0 1442.0,4.0 1442.0,4.0 C1442.0,4.0 1442.0,16.0 1442.0,16.0 C1442.0,16.0 1444.0,16.0 1444.0,16.0 C1444.0,16.0 1444.0,4.0 1444.0,4.0 C1444.0,4.0 1451.0,4.0 1451.0,4.0 C1451.0,4.0 1451.0,21.0 1451.0,21.0 C1451.0,21.0 1455.0,21.0 1455.0,21.0 C1455.0,21.0 1455.0,4.0 1455.0,4.0 C1455.0,4.0 1462.0,4.0 1462.0,4.0 C1462.0,4.0 1462.0,16.0 1462.0,16.0 C1462.0,16.0 1464.0,16.0 1464.0,16.0 C1464.0,16.0 1464.0,4.0 1464.0,4.0 C1464.0,4.0 1472.0,4.0 1472.0,4.0 C1472.0,4.0 1472.0,16.0 1472.0,16.0 C1472.0,16.0 1474.0,16.0 1474.0,16.0 C1474.0,16.0 1474.0,4.0 1474.0,4.0 C1474.0,4.0 1482.0,4.0 1482.0,4.0 C1482.0,4.0 1482.0,16.0 1482.0,16.0 C1482.0,16.0 1484.0,16.0 1484.0,16.0 C1484.0,16.0 1484.0,4.0 1484.0,4.0 C1484.0,4.0 1492.0,4.0 1492.0,4.0 C1492.0,4.0 1492.0,16.0 1492.0,16.0 C1492.0,16.0 1494.0,16.0 1494.0,16.0 C1494.0,16.0 1494.0,4.0 1494.0,4.0 C1494.0,4.0 1501.0,4.0 1501.0,4.0 C1501.0,4.0 1501.0,21.0 1501.0,21.0 C1501.0,21.0 1505.0,21.0 1505.0,21.0 C1505.0,21.0 1505.0,4.0 1505.0,4.0 C1505.0,4.0 1512.0,4.0 1512.0,4.0 C1512.0,4.0 1512.0,16.0 1512.0,16.0 C1512.0,16.0 1514.0,16.0 1514.0,16.0 C1514.0,16.0 1514.0,4.0 1514.0,4.0 C1514.0,4.0 1522.0,4.0 1522.0,4.0 C1522.0,4.0 1522.0,16.0 1522.0,16.0 C1522.0,16.0 1524.0,16.0 1524.0,16.0 C1524.0,16.0 1524.0,4.0 1524.0,4.0 C1524.0,4.0 1532.0,4.0 1532.0,4.0 C1532.0,4.0 1532.0,16.0 1532.0,16.0 C1532.0,16.0 1534.0,16.0 1534.0,16.0 C1534.0,16.0 1534.0,4.0 1534.0,4.0 C1534.0,4.0 1542.0,4.0 1542.0,4.0 C1542.0,4.0 1542.0,16.0 1542.0,16.0 C1542.0,16.0 1544.0,16.0 1544.0,16.0 C1544.0,16.0 1544.0,4.0 1544.0,4.0 C1544.0,4.0 1551.0,4.0 1551.0,4.0 C1551.0,4.0 1551.0,21.0 1551.0,21.0 C1551.0,21.0 1555.0,21.0 1555.0,21.0 C1555.0,21.0 1555.0,4.0 1555.0,4.0 C1555.0,4.0 1562.0,4.0 1562.0,4.0 C1562.0,4.0 1562.0,16.0 1562.0,16.0 C1562.0,16.0 1564.0,16.0 1564.0,16.0 C1564.0,16.0 1564.0,4.0 1564.0,4.0 C1564.0,4.0 1572.0,4.0 1572.0,4.0 C1572.0,4.0 1572.0,16.0 1572.0,16.0 C1572.0,16.0 1574.0,16.0 1574.0,16.0 C1574.0,16.0 1574.0,4.0 1574.0,4.0 C1574.0,4.0 1582.0,4.0 1582.0,4.0 C1582.0,4.0 1582.0,16.0 1582.0,16.0 C1582.0,16.0 1584.0,16.0 1584.0,16.0 C1584.0,16.0 1584.0,4.0 1584.0,4.0 C1584.0,4.0 1592.0,4.0 1592.0,4.0 C1592.0,4.0 1592.0,16.0 1592.0,16.0 C1592.0,16.0 1594.0,16.0 1594.0,16.0 C1594.0,16.0 1594.0,4.0 1594.0,4.0 C1594.0,4.0 1601.0,4.0 1601.0,4.0 C1601.0,4.0 1601.0,21.0 1601.0,21.0 C1601.0,21.0 1605.0,21.0 1605.0,21.0 C1605.0,21.0 1605.0,4.0 1605.0,4.0 C1605.0,4.0 1612.0,4.0 1612.0,4.0 C1612.0,4.0 1612.0,16.0 1612.0,16.0 C1612.0,16.0 1614.0,16.0 1614.0,16.0 C1614.0,16.0 1614.0,4.0 1614.0,4.0 C1614.0,4.0 1622.0,4.0 1622.0,4.0 C1622.0,4.0 1622.0,16.0 1622.0,16.0 C1622.0,16.0 1624.0,16.0 1624.0,16.0 C1624.0,16.0 1624.0,4.0 1624.0,4.0 C1624.0,4.0 1632.0,4.0 1632.0,4.0 C1632.0,4.0 1632.0,16.0 1632.0,16.0 C1632.0,16.0 1634.0,16.0 1634.0,16.0 C1634.0,16.0 1634.0,4.0 1634.0,4.0 C1634.0,4.0 1642.0,4.0 1642.0,4.0 C1642.0,4.0 1642.0,16.0 1642.0,16.0 C1642.0,16.0 1644.0,16.0 1644.0,16.0 C1644.0,16.0 1644.0,4.0 1644.0,4.0 C1644.0,4.0 1651.0,4.0 1651.0,4.0 C1651.0,4.0 1651.0,21.0 1651.0,21.0 C1651.0,21.0 1655.0,21.0 1655.0,21.0 C1655.0,21.0 1655.0,4.0 1655.0,4.0 C1655.0,4.0 1662.0,4.0 1662.0,4.0 C1662.0,4.0 1662.0,16.0 1662.0,16.0 C1662.0,16.0 1664.0,16.0 1664.0,16.0 C1664.0,16.0 1664.0,4.0 1664.0,4.0 C1664.0,4.0 1672.0,4.0 1672.0,4.0 C1672.0,4.0 1672.0,16.0 1672.0,16.0 C1672.0,16.0 1674.0,16.0 1674.0,16.0 C1674.0,16.0 1674.0,4.0 1674.0,4.0 C1674.0,4.0 1682.0,4.0 1682.0,4.0 C1682.0,4.0 1682.0,16.0 1682.0,16.0 C1682.0,16.0 1684.0,16.0 1684.0,16.0 C1684.0,16.0 1684.0,4.0 1684.0,4.0 C1684.0,4.0 1692.0,4.0 1692.0,4.0 C1692.0,4.0 1692.0,16.0 1692.0,16.0 C1692.0,16.0 1694.0,16.0 1694.0,16.0 C1694.0,16.0 1694.0,4.0 1694.0,4.0 C1694.0,4.0 1700.9999,4.0 1700.9999,4.0 C1700.9999,4.0 1700.9999,21.0 1700.9999,21.0 C1700.9999,21.0 1705.0,21.0 1705.0,21.0 C1705.0,21.0 1705.0,4.0 1705.0,4.0 C1705.0,4.0 1711.9999,4.0 1711.9999,4.0 C1711.9999,4.0 1711.9999,16.0 1711.9999,16.0 C1711.9999,16.0 1714.0,16.0 1714.0,16.0 C1714.0,16.0 1714.0,4.0 1714.0,4.0 C1714.0,4.0 1721.9999,4.0 1721.9999,4.0 C1721.9999,4.0 1721.9999,16.0 1721.9999,16.0 C1721.9999,16.0 1724.0,16.0 1724.0,16.0 C1724.0,16.0 1724.0,4.0 1724.0,4.0 C1724.0,4.0 1732.0,4.0 1732.0,4.0 C1732.0,4.0 1732.0,16.0 1732.0,16.0 C1732.0,16.0 1733.9999,16.0 1733.9999,16.0 C1733.9999,16.0 1733.9999,4.0 1733.9999,4.0 C1733.9999,4.0 1742.0,4.0 1742.0,4.0 C1742.0,4.0 1742.0,16.0 1742.0,16.0 C1742.0,16.0 1743.9999,16.0 1743.9999,16.0 C1743.9999,16.0 1743.9999,4.0 1743.9999,4.0 C1743.9999,4.0 1751.0,4.0 1751.0,4.0 C1751.0,4.0 1751.0,21.0 1751.0,21.0 C1751.0,21.0 1754.9999,21.0 1754.9999,21.0 C1754.9999,21.0 1754.9999,4.0 1754.9999,4.0 C1754.9999,4.0 1762.0,4.0 1762.0,4.0 C1762.0,4.0 1762.0,16.0 1762.0,16.0 C1762.0,16.0 1764.0,16.0 1764.0,16.0 C1764.0,16.0 1764.0,4.0 1764.0,4.0 C1764.0,4.0 1772.0,4.0 1772.0,4.0 C1772.0,4.0 1772.0,16.0 1772.0,16.0 C1772.0,16.0 1774.0,16.0 1774.0,16.0 C1774.0,16.0 1774.0,4.0 1774.0,4.0 C1774.0,4.0 1782.0,4.0 1782.0,4.0 C1782.0,4.0 1782.0,16.0 1782.0,16.0 C1782.0,16.0 1784.0,16.0 1784.0,16.0 C1784.0,16.0 1784.0,4.0 1784.0,4.0 C1784.0,4.0 1791.9999,4.0 1791.9999,4.0 C1791.9999,4.0 1791.9999,16.0 1791.9999,16.0 C1791.9999,16.0 1794.0,16.0 1794.0,16.0 C1794.0,16.0 1794.0,4.0 1794.0,4.0 C1794.0,4.0 1801.0,4.0 1801.0,4.0 C1801.0,4.0 1801.0,21.0 1801.0,21.0 C1801.0,21.0 1805.0,21.0 1805.0,21.0 C1805.0,21.0 1805.0,4.0 1805.0,4.0 C1805.0,4.0 1811.9999,4.0 1811.9999,4.0 C1811.9999,4.0 1811.9999,16.0 1811.9999,16.0 C1811.9999,16.0 1814.0,16.0 1814.0,16.0 C1814.0,16.0 1814.0,4.0 1814.0,4.0 C1814.0,4.0 1822.0,4.0 1822.0,4.0 C1822.0,4.0 1822.0,16.0 1822.0,16.0 C1822.0,16.0 1824.0,16.0 1824.0,16.0 C1824.0,16.0 1824.0,4.0 1824.0,4.0 C1824.0,4.0 1832.0,4.0 1832.0,4.0 C1832.0,4.0 1832.0,16.0 1832.0,16.0 C1832.0,16.0 1833.9999,16.0 1833.9999,16.0 C1833.9999,16.0 1833.9999,4.0 1833.9999,4.0 C1833.9999,4.0 1842.0,4.0 1842.0,4.0 C1842.0,4.0 1842.0,16.0 1842.0,16.0 C1842.0,16.0 1843.9999,16.0 1843.9999,16.0 C1843.9999,16.0 1843.9999,4.0 1843.9999,4.0 C1843.9999,4.0 1851.0,4.0 1851.0,4.0 C1851.0,4.0 1851.0,21.0 1851.0,21.0 C1851.0,21.0 1854.9999,21.0 1854.9999,21.0 C1854.9999,21.0 1854.9999,4.0 1854.9999,4.0 C1854.9999,4.0 1862.0,4.0 1862.0,4.0 C1862.0,4.0 1862.0,16.0 1862.0,16.0 C1862.0,16.0 1864.0,16.0 1864.0,16.0 C1864.0,16.0 1864.0,4.0 1864.0,4.0 C1864.0,4.0 1872.0,4.0 1872.0,4.0 C1872.0,4.0 1872.0,16.0 1872.0,16.0 C1872.0,16.0 1874.0,16.0 1874.0,16.0 C1874.0,16.0 1874.0,4.0 1874.0,4.0 C1874.0,4.0 1882.0,4.0 1882.0,4.0 C1882.0,4.0 1882.0,16.0 1882.0,16.0 C1882.0,16.0 1884.0,16.0 1884.0,16.0 C1884.0,16.0 1884.0,4.0 1884.0,4.0 C1884.0,4.0 1891.9999,4.0 1891.9999,4.0 C1891.9999,4.0 1891.9999,16.0 1891.9999,16.0 C1891.9999,16.0 1894.0,16.0 1894.0,16.0 C1894.0,16.0 1894.0,4.0 1894.0,4.0 C1894.0,4.0 1901.0,4.0 1901.0,4.0 C1901.0,4.0 1901.0,21.0 1901.0,21.0 C1901.0,21.0 1905.0,21.0 1905.0,21.0 C1905.0,21.0 1905.0,4.0 1905.0,4.0 C1905.0,4.0 1911.9999,4.0 1911.9999,4.0 C1911.9999,4.0 1911.9999,16.0 1911.9999,16.0 C1911.9999,16.0 1914.0,16.0 1914.0,16.0 C1914.0,16.0 1914.0,4.0 1914.0,4.0 C1914.0,4.0 1922.0,4.0 1922.0,4.0 C1922.0,4.0 1922.0,16.0 1922.0,16.0 C1922.0,16.0 1923.9999,16.0 1923.9999,16.0 C1923.9999,16.0 1923.9999,4.0 1923.9999,4.0 C1923.9999,4.0 1932.0,4.0 1932.0,4.0 C1932.0,4.0 1932.0,16.0 1932.0,16.0 C1932.0,16.0 1933.9999,16.0 1933.9999,16.0 C1933.9999,16.0 1933.9999,4.0 1933.9999,4.0 C1933.9999,4.0 1942.0,4.0 1942.0,4.0 C1942.0,4.0 1942.0,16.0 1942.0,16.0 C1942.0,16.0 1943.9999,16.0 1943.9999,16.0 C1943.9999,16.0 1943.9999,4.0 1943.9999,4.0 C1943.9999,4.0 1951.0,4.0 1951.0,4.0 C1951.0,4.0 1951.0,21.0 1951.0,21.0 C1951.0,21.0 1954.9999,21.0 1954.9999,21.0 C1954.9999,21.0 1954.9999,4.0 1954.9999,4.0 C1954.9999,4.0 1962.0,4.0 1962.0,4.0 C1962.0,4.0 1962.0,16.0 1962.0,16.0 C1962.0,16.0 1964.0,16.0 1964.0,16.0 C1964.0,16.0 1964.0,4.0 1964.0,4.0 C1964.0,4.0 1972.0,4.0 1972.0,4.0 C1972.0,4.0 1972.0,16.0 1972.0,16.0 C1972.0,16.0 1974.0,16.0 1974.0,16.0 C1974.0,16.0 1974.0,4.0 1974.0,4.0 C1974.0,4.0 1981.9999,4.0 1981.9999,4.0 C1981.9999,4.0 1981.9999,16.0 1981.9999,16.0 C1981.9999,16.0 1984.0,16.0 1984.0,16.0 C1984.0,16.0 1984.0,4.0 1984.0,4.0 C1984.0,4.0 1991.9999,4.0 1991.9999,4.0 C1991.9999,4.0 1991.9999,16.0 1991.9999,16.0 C1991.9999,16.0 1994.0,16.0 1994.0,16.0 C1994.0,16.0 1994.0,4.0 1994.0,4.0 C1994.0,4.0 2001.0,4.0 2001.0,4.0 C2001.0,4.0 2001.0,21.0 2001.0,21.0 C2001.0,21.0 2005.0,21.0 2005.0,21.0 C2005.0,21.0 2005.0,4.0 2005.0,4.0 C2005.0,4.0 2012.0,4.0 2012.0,4.0 C2012.0,4.0 2012.0,16.0 2012.0,16.0 C2012.0,16.0 2014.0,16.0 2014.0,16.0 C2014.0,16.0 2014.0,4.0 2014.0,4.0 C2014.0,4.0 2022.0,4.0 2022.0,4.0 C2022.0,4.0 2022.0,16.0 2022.0,16.0 C2022.0,16.0 2023.9999,16.0 2023.9999,16.0 C2023.9999,16.0 2023.9999,4.0 2023.9999,4.0 C2023.9999,4.0 2032.0,4.0 2032.0,4.0 C2032.0,4.0 2032.0,16.0 2032.0,16.0 C2032.0,16.0 2033.9999,16.0 2033.9999,16.0 C2033.9999,16.0 2033.9999,4.0 2033.9999,4.0 C2033.9999,4.0 2042.0,4.0 2042.0,4.0 C2042.0,4.0 2042.0,16.0 2042.0,16.0 C2042.0,16.0 2043.9999,16.0 2043.9999,16.0 C2043.9999,16.0 2043.9999,4.0 2043.9999,4.0 C2043.9999,4.0 2051.0,4.0 2051.0,4.0 C2051.0,4.0 2051.0,21.0 2051.0,21.0 C2051.0,21.0 2055.0,21.0 2055.0,21.0 C2055.0,21.0 2055.0,4.0 2055.0,4.0 C2055.0,4.0 2062.0,4.0 2062.0,4.0 C2062.0,4.0 2062.0,16.0 2062.0,16.0 C2062.0,16.0 2064.0,16.0 2064.0,16.0 C2064.0,16.0 2064.0,4.0 2064.0,4.0 C2064.0,4.0 2072.0,4.0 2072.0,4.0 C2072.0,4.0 2072.0,16.0 2072.0,16.0 C2072.0,16.0 2074.0,16.0 2074.0,16.0 C2074.0,16.0 2074.0,4.0 2074.0,4.0 C2074.0,4.0 2082.0,4.0 2082.0,4.0 C2082.0,4.0 2082.0,16.0 2082.0,16.0 C2082.0,16.0 2084.0,16.0 2084.0,16.0 C2084.0,16.0 2084.0,4.0 2084.0,4.0 C2084.0,4.0 2092.0,4.0 2092.0,4.0 C2092.0,4.0 2092.0,16.0 2092.0,16.0 C2092.0,16.0 2094.0,16.0 2094.0,16.0 C2094.0,16.0 2094.0,4.0 2094.0,4.0 C2094.0,4.0 2101.0,4.0 2101.0,4.0 C2101.0,4.0 2101.0,21.0 2101.0,21.0 C2101.0,21.0 2105.0,21.0 2105.0,21.0 C2105.0,21.0 2105.0,4.0 2105.0,4.0 C2105.0,4.0 2112.0,4.0 2112.0,4.0 C2112.0,4.0 2112.0,16.0 2112.0,16.0 C2112.0,16.0 2114.0,16.0 2114.0,16.0 C2114.0,16.0 2114.0,4.0 2114.0,4.0 C2114.0,4.0 2122.0,4.0 2122.0,4.0 C2122.0,4.0 2122.0,16.0 2122.0,16.0 C2122.0,16.0 2124.0,16.0 2124.0,16.0 C2124.0,16.0 2124.0,4.0 2124.0,4.0 C2124.0,4.0 2132.0,4.0 2132.0,4.0 C2132.0,4.0 2132.0,16.0 2132.0,16.0 C2132.0,16.0 2134.0,16.0 2134.0,16.0 C2134.0,16.0 2134.0,4.0 2134.0,4.0 C2134.0,4.0 2142.0,4.0 2142.0,4.0 C2142.0,4.0 2142.0,16.0 2142.0,16.0 C2142.0,16.0 2144.0,16.0 2144.0,16.0 C2144.0,16.0 2144.0,4.0 2144.0,4.0 C2144.0,4.0 2151.0,4.0 2151.0,4.0 C2151.0,4.0 2151.0,21.0 2151.0,21.0 C2151.0,21.0 2155.0,21.0 2155.0,21.0 C2155.0,21.0 2155.0,4.0 2155.0,4.0 C2155.0,4.0 2162.0,4.0 2162.0,4.0 C2162.0,4.0 2162.0,16.0 2162.0,16.0 C2162.0,16.0 2164.0,16.0 2164.0,16.0 C2164.0,16.0 2164.0,4.0 2164.0,4.0 C2164.0,4.0 2172.0,4.0 2172.0,4.0 C2172.0,4.0 2172.0,16.0 2172.0,16.0 C2172.0,16.0 2174.0,16.0 2174.0,16.0 C2174.0,16.0 2174.0,4.0 2174.0,4.0 C2174.0,4.0 2182.0,4.0 2182.0,4.0 C2182.0,4.0 2182.0,16.0 2182.0,16.0 C2182.0,16.0 2184.0,16.0 2184.0,16.0 C2184.0,16.0 2184.0,4.0 2184.0,4.0 C2184.0,4.0 2192.0,4.0 2192.0,4.0 C2192.0,4.0 2192.0,16.0 2192.0,16.0 C2192.0,16.0 2194.0,16.0 2194.0,16.0 C2194.0,16.0 2194.0,4.0 2194.0,4.0 C2194.0,4.0 2201.0,4.0 2201.0,4.0 C2201.0,4.0 2201.0,21.0 2201.0,21.0 C2201.0,21.0 2205.0,21.0 2205.0,21.0 C2205.0,21.0 2205.0,4.0 2205.0,4.0 C2205.0,4.0 2212.0,4.0 2212.0,4.0 C2212.0,4.0 2212.0,16.0 2212.0,16.0 C2212.0,16.0 2214.0,16.0 2214.0,16.0 C2214.0,16.0 2214.0,4.0 2214.0,4.0 C2214.0,4.0 2222.0,4.0 2222.0,4.0 C2222.0,4.0 2222.0,16.0 2222.0,16.0 C2222.0,16.0 2224.0,16.0 2224.0,16.0 C2224.0,16.0 2224.0,4.0 2224.0,4.0 C2224.0,4.0 2232.0,4.0 2232.0,4.0 C2232.0,4.0 2232.0,16.0 2232.0,16.0 C2232.0,16.0 2234.0,16.0 2234.0,16.0 C2234.0,16.0 2234.0,4.0 2234.0,4.0 C2234.0,4.0 2242.0,4.0 2242.0,4.0 C2242.0,4.0 2242.0,16.0 2242.0,16.0 C2242.0,16.0 2244.0,16.0 2244.0,16.0 C2244.0,16.0 2244.0,4.0 2244.0,4.0 C2244.0,4.0 2251.0,4.0 2251.0,4.0 C2251.0,4.0 2251.0,21.0 2251.0,21.0 C2251.0,21.0 2255.0,21.0 2255.0,21.0 C2255.0,21.0 2255.0,4.0 2255.0,4.0 C2255.0,4.0 2262.0,4.0 2262.0,4.0 C2262.0,4.0 2262.0,16.0 2262.0,16.0 C2262.0,16.0 2264.0,16.0 2264.0,16.0 C2264.0,16.0 2264.0,4.0 2264.0,4.0 C2264.0,4.0 2272.0,4.0 2272.0,4.0 C2272.0,4.0 2272.0,16.0 2272.0,16.0 C2272.0,16.0 2274.0,16.0 2274.0,16.0 C2274.0,16.0 2274.0,4.0 2274.0,4.0 C2274.0,4.0 2282.0,4.0 2282.0,4.0 C2282.0,4.0 2282.0,16.0 2282.0,16.0 C2282.0,16.0 2284.0,16.0 2284.0,16.0 C2284.0,16.0 2284.0,4.0 2284.0,4.0 C2284.0,4.0 2292.0,4.0 2292.0,4.0 C2292.0,4.0 2292.0,16.0 2292.0,16.0 C2292.0,16.0 2294.0,16.0 2294.0,16.0 C2294.0,16.0 2294.0,4.0 2294.0,4.0 C2294.0,4.0 2301.0,4.0 2301.0,4.0 C2301.0,4.0 2301.0,21.0 2301.0,21.0 C2301.0,21.0 2305.0,21.0 2305.0,21.0 C2305.0,21.0 2305.0,4.0 2305.0,4.0 C2305.0,4.0 2312.0,4.0 2312.0,4.0 C2312.0,4.0 2312.0,16.0 2312.0,16.0 C2312.0,16.0 2314.0,16.0 2314.0,16.0 C2314.0,16.0 2314.0,4.0 2314.0,4.0 C2314.0,4.0 2322.0,4.0 2322.0,4.0 C2322.0,4.0 2322.0,16.0 2322.0,16.0 C2322.0,16.0 2324.0,16.0 2324.0,16.0 C2324.0,16.0 2324.0,4.0 2324.0,4.0 C2324.0,4.0 2332.0,4.0 2332.0,4.0 C2332.0,4.0 2332.0,16.0 2332.0,16.0 C2332.0,16.0 2334.0,16.0 2334.0,16.0 C2334.0,16.0 2334.0,4.0 2334.0,4.0 C2334.0,4.0 2342.0,4.0 2342.0,4.0 C2342.0,4.0 2342.0,16.0 2342.0,16.0 C2342.0,16.0 2344.0,16.0 2344.0,16.0 C2344.0,16.0 2344.0,4.0 2344.0,4.0 C2344.0,4.0 2351.0,4.0 2351.0,4.0 C2351.0,4.0 2351.0,21.0 2351.0,21.0 C2351.0,21.0 2355.0,21.0 2355.0,21.0 C2355.0,21.0 2355.0,4.0 2355.0,4.0 C2355.0,4.0 2362.0,4.0 2362.0,4.0 C2362.0,4.0 2362.0,16.0 2362.0,16.0 C2362.0,16.0 2364.0,16.0 2364.0,16.0 C2364.0,16.0 2364.0,4.0 2364.0,4.0 C2364.0,4.0 2372.0,4.0 2372.0,4.0 C2372.0,4.0 2372.0,16.0 2372.0,16.0 C2372.0,16.0 2374.0,16.0 2374.0,16.0 C2374.0,16.0 2374.0,4.0 2374.0,4.0 C2374.0,4.0 2382.0,4.0 2382.0,4.0 C2382.0,4.0 2382.0,16.0 2382.0,16.0 C2382.0,16.0 2384.0,16.0 2384.0,16.0 C2384.0,16.0 2384.0,4.0 2384.0,4.0 C2384.0,4.0 2392.0,4.0 2392.0,4.0 C2392.0,4.0 2392.0,16.0 2392.0,16.0 C2392.0,16.0 2394.0,16.0 2394.0,16.0 C2394.0,16.0 2394.0,4.0 2394.0,4.0 C2394.0,4.0 2401.0,4.0 2401.0,4.0 C2401.0,4.0 2401.0,21.0 2401.0,21.0 C2401.0,21.0 2405.0,21.0 2405.0,21.0 C2405.0,21.0 2405.0,4.0 2405.0,4.0 C2405.0,4.0 2412.0,4.0 2412.0,4.0 C2412.0,4.0 2412.0,16.0 2412.0,16.0 C2412.0,16.0 2414.0,16.0 2414.0,16.0 C2414.0,16.0 2414.0,4.0 2414.0,4.0 C2414.0,4.0 2422.0,4.0 2422.0,4.0 C2422.0,4.0 2422.0,16.0 2422.0,16.0 C2422.0,16.0 2424.0,16.0 2424.0,16.0 C2424.0,16.0 2424.0,4.0 2424.0,4.0 C2424.0,4.0 2432.0,4.0 2432.0,4.0 C2432.0,4.0 2432.0,16.0 2432.0,16.0 C2432.0,16.0 2434.0,16.0 2434.0,16.0 C2434.0,16.0 2434.0,4.0 2434.0,4.0 C2434.0,4.0 2442.0,4.0 2442.0,4.0 C2442.0,4.0 2442.0,16.0 2442.0,16.0 C2442.0,16.0 2444.0,16.0 2444.0,16.0 C2444.0,16.0 2444.0,4.0 2444.0,4.0 C2444.0,4.0 2451.0,4.0 2451.0,4.0 C2451.0,4.0 2451.0,21.0 2451.0,21.0 C2451.0,21.0 2455.0,21.0 2455.0,21.0 C2455.0,21.0 2455.0,4.0 2455.0,4.0 C2455.0,4.0 2462.0,4.0 2462.0,4.0 C2462.0,4.0 2462.0,16.0 2462.0,16.0 C2462.0,16.0 2464.0,16.0 2464.0,16.0 C2464.0,16.0 2464.0,4.0 2464.0,4.0 C2464.0,4.0 2472.0,4.0 2472.0,4.0 C2472.0,4.0 2472.0,16.0 2472.0,16.0 C2472.0,16.0 2474.0,16.0 2474.0,16.0 C2474.0,16.0 2474.0,4.0 2474.0,4.0 C2474.0,4.0 2482.0,4.0 2482.0,4.0 C2482.0,4.0 2482.0,16.0 2482.0,16.0 C2482.0,16.0 2484.0,16.0 2484.0,16.0 C2484.0,16.0 2484.0,4.0 2484.0,4.0 C2484.0,4.0 2492.0,4.0 2492.0,4.0 C2492.0,4.0 2492.0,16.0 2492.0,16.0 C2492.0,16.0 2494.0,16.0 2494.0,16.0 C2494.0,16.0 2494.0,4.0 2494.0,4.0 C2494.0,4.0 2501.0,4.0 2501.0,4.0 C2501.0,4.0 2501.0,21.0 2501.0,21.0 C2501.0,21.0 2505.0,21.0 2505.0,21.0 C2505.0,21.0 2505.0,4.0 2505.0,4.0 C2505.0,4.0 2512.0,4.0 2512.0,4.0 C2512.0,4.0 2512.0,16.0 2512.0,16.0 C2512.0,16.0 2514.0,16.0 2514.0,16.0 C2514.0,16.0 2514.0,4.0 2514.0,4.0 C2514.0,4.0 2522.0,4.0 2522.0,4.0 C2522.0,4.0 2522.0,16.0 2522.0,16.0 C2522.0,16.0 2524.0,16.0 2524.0,16.0 C2524.0,16.0 2524.0,4.0 2524.0,4.0 C2524.0,4.0 2532.0,4.0 2532.0,4.0 C2532.0,4.0 2532.0,16.0 2532.0,16.0 C2532.0,16.0 2534.0,16.0 2534.0,16.0 C2534.0,16.0 2534.0,4.0 2534.0,4.0 C2534.0,4.0 2542.0,4.0 2542.0,4.0 C2542.0,4.0 2542.0,16.0 2542.0,16.0 C2542.0,16.0 2544.0,16.0 2544.0,16.0 C2544.0,16.0 2544.0,4.0 2544.0,4.0 C2544.0,4.0 2551.0,4.0 2551.0,4.0 C2551.0,4.0 2551.0,21.0 2551.0,21.0 C2551.0,21.0 2555.0,21.0 2555.0,21.0 C2555.0,21.0 2555.0,4.0 2555.0,4.0 C2555.0,4.0 2562.0,4.0 2562.0,4.0 C2562.0,4.0 2562.0,16.0 2562.0,16.0 C2562.0,16.0 2564.0,16.0 2564.0,16.0 C2564.0,16.0 2564.0,4.0 2564.0,4.0 C2564.0,4.0 2572.0,4.0 2572.0,4.0 C2572.0,4.0 2572.0,16.0 2572.0,16.0 C2572.0,16.0 2574.0,16.0 2574.0,16.0 C2574.0,16.0 2574.0,4.0 2574.0,4.0 C2574.0,4.0 2582.0,4.0 2582.0,4.0 C2582.0,4.0 2582.0,16.0 2582.0,16.0 C2582.0,16.0 2584.0,16.0 2584.0,16.0 C2584.0,16.0 2584.0,4.0 2584.0,4.0 C2584.0,4.0 2592.0,4.0 2592.0,4.0 C2592.0,4.0 2592.0,16.0 2592.0,16.0 C2592.0,16.0 2594.0,16.0 2594.0,16.0 C2594.0,16.0 2594.0,4.0 2594.0,4.0 C2594.0,4.0 2601.0,4.0 2601.0,4.0 C2601.0,4.0 2601.0,21.0 2601.0,21.0 C2601.0,21.0 2605.0,21.0 2605.0,21.0 C2605.0,21.0 2605.0,4.0 2605.0,4.0 C2605.0,4.0 2612.0,4.0 2612.0,4.0 C2612.0,4.0 2612.0,16.0 2612.0,16.0 C2612.0,16.0 2614.0,16.0 2614.0,16.0 C2614.0,16.0 2614.0,4.0 2614.0,4.0 C2614.0,4.0 2622.0,4.0 2622.0,4.0 C2622.0,4.0 2622.0,16.0 2622.0,16.0 C2622.0,16.0 2624.0,16.0 2624.0,16.0 C2624.0,16.0 2624.0,4.0 2624.0,4.0 C2624.0,4.0 2632.0,4.0 2632.0,4.0 C2632.0,4.0 2632.0,16.0 2632.0,16.0 C2632.0,16.0 2634.0,16.0 2634.0,16.0 C2634.0,16.0 2634.0,4.0 2634.0,4.0 C2634.0,4.0 2642.0,4.0 2642.0,4.0 C2642.0,4.0 2642.0,16.0 2642.0,16.0 C2642.0,16.0 2644.0,16.0 2644.0,16.0 C2644.0,16.0 2644.0,4.0 2644.0,4.0 C2644.0,4.0 2651.0,4.0 2651.0,4.0 C2651.0,4.0 2651.0,21.0 2651.0,21.0 C2651.0,21.0 2655.0,21.0 2655.0,21.0 C2655.0,21.0 2655.0,4.0 2655.0,4.0 C2655.0,4.0 2662.0,4.0 2662.0,4.0 C2662.0,4.0 2662.0,16.0 2662.0,16.0 C2662.0,16.0 2664.0,16.0 2664.0,16.0 C2664.0,16.0 2664.0,4.0 2664.0,4.0 C2664.0,4.0 2672.0,4.0 2672.0,4.0 C2672.0,4.0 2672.0,16.0 2672.0,16.0 C2672.0,16.0 2674.0,16.0 2674.0,16.0 C2674.0,16.0 2674.0,4.0 2674.0,4.0 C2674.0,4.0 2682.0,4.0 2682.0,4.0 C2682.0,4.0 2682.0,16.0 2682.0,16.0 C2682.0,16.0 2684.0,16.0 2684.0,16.0 C2684.0,16.0 2684.0,4.0 2684.0,4.0 C2684.0,4.0 2692.0,4.0 2692.0,4.0 C2692.0,4.0 2692.0,16.0 2692.0,16.0 C2692.0,16.0 2694.0,16.0 2694.0,16.0 C2694.0,16.0 2694.0,4.0 2694.0,4.0 C2694.0,4.0 2701.0,4.0 2701.0,4.0 C2701.0,4.0 2701.0,21.0 2701.0,21.0 C2701.0,21.0 2705.0,21.0 2705.0,21.0 C2705.0,21.0 2705.0,4.0 2705.0,4.0 C2705.0,4.0 2712.0,4.0 2712.0,4.0 C2712.0,4.0 2712.0,16.0 2712.0,16.0 C2712.0,16.0 2714.0,16.0 2714.0,16.0 C2714.0,16.0 2714.0,4.0 2714.0,4.0 C2714.0,4.0 2722.0,4.0 2722.0,4.0 C2722.0,4.0 2722.0,16.0 2722.0,16.0 C2722.0,16.0 2724.0,16.0 2724.0,16.0 C2724.0,16.0 2724.0,4.0 2724.0,4.0 C2724.0,4.0 2732.0,4.0 2732.0,4.0 C2732.0,4.0 2732.0,16.0 2732.0,16.0 C2732.0,16.0 2734.0,16.0 2734.0,16.0 C2734.0,16.0 2734.0,4.0 2734.0,4.0 C2734.0,4.0 2742.0,4.0 2742.0,4.0 C2742.0,4.0 2742.0,16.0 2742.0,16.0 C2742.0,16.0 2744.0,16.0 2744.0,16.0 C2744.0,16.0 2744.0,4.0 2744.0,4.0 C2744.0,4.0 2751.0,4.0 2751.0,4.0 C2751.0,4.0 2751.0,21.0 2751.0,21.0 C2751.0,21.0 2754.9998,21.0 2754.9998,21.0 C2754.9998,21.0 2754.9998,4.0 2754.9998,4.0 C2754.9998,4.0 2762.0,4.0 2762.0,4.0 C2762.0,4.0 2762.0,16.0 2762.0,16.0 C2762.0,16.0 2764.0,16.0 2764.0,16.0 C2764.0,16.0 2764.0,4.0 2764.0,4.0 C2764.0,4.0 2772.0,4.0 2772.0,4.0 C2772.0,4.0 2772.0,16.0 2772.0,16.0 C2772.0,16.0 2774.0,16.0 2774.0,16.0 C2774.0,16.0 2774.0,4.0 2774.0,4.0 C2774.0,4.0 2782.0,4.0 2782.0,4.0 C2782.0,4.0 2782.0,16.0 2782.0,16.0 C2782.0,16.0 2784.0,16.0 2784.0,16.0 C2784.0,16.0 2784.0,4.0 2784.0,4.0 C2784.0,4.0 2792.0,4.0 2792.0,4.0 C2792.0,4.0 2792.0,16.0 2792.0,16.0 C2792.0,16.0 2794.0,16.0 2794.0,16.0 C2794.0,16.0 2794.0,4.0 2794.0,4.0 C2794.0,4.0 2801.0,4.0 2801.0,4.0 C2801.0,4.0 2801.0,21.0 2801.0,21.0 C2801.0,21.0 2804.9998,21.0 2804.9998,21.0 C2804.9998,21.0 2804.9998,4.0 2804.9998,4.0 C2804.9998,4.0 2812.0,4.0 2812.0,4.0 C2812.0,4.0 2812.0,16.0 2812.0,16.0 C2812.0,16.0 2814.0,16.0 2814.0,16.0 C2814.0,16.0 2814.0,4.0 2814.0,4.0 C2814.0,4.0 2822.0,4.0 2822.0,4.0 C2822.0,4.0 2822.0,16.0 2822.0,16.0 C2822.0,16.0 2824.0,16.0 2824.0,16.0 C2824.0,16.0 2824.0,4.0 2824.0,4.0 C2824.0,4.0 2832.0,4.0 2832.0,4.0 C2832.0,4.0 2832.0,16.0 2832.0,16.0 C2832.0,16.0 2833.9998,16.0 2833.9998,16.0 C2833.9998,16.0 2833.9998,4.0 2833.9998,4.0 C2833.9998,4.0 2842.0,4.0 2842.0,4.0 C2842.0,4.0 2842.0,16.0 2842.0,16.0 C2842.0,16.0 2843.9998,16.0 2843.9998,16.0 C2843.9998,16.0 2843.9998,4.0 2843.9998,4.0 C2843.9998,4.0 2851.0,4.0 2851.0,4.0 C2851.0,4.0 2851.0,2.0 2851.0,2.0 C2851.0,2.0 1.0,2.0 1.0,2.0 C1.0,2.0 1.0,21.0 1.0,21.0 C1.0,21.0 5.000061,21.0 5.000061,21.0 C5.000061,21.0 5.000061,4.0 5.000061,4.0 C5.000061,4.0 12.0,4.0 12.0,4.0 C12.0,4.0 12.0,16.0 12.0,16.0 C12.0,16.0 14.000061,16.0 14.000061,16.0 C14.000061,16.0 14.000061,4.0 14.000061,4.0 C14.000061,4.0 22.0,4.0 22.0,4.0 C22.0,4.0 22.0,16.0 22.0,16.0 C22.0,16.0 24.000061,16.0 24.000061,16.0 C24.000061,16.0 24.000061,4.0 24.000061,4.0 C24.000061,4.0 32.0,4.0 32.0,4.0 C32.0,4.0 32.0,16.0 32.0,16.0 C32.0,16.0 34.00006,16.0 34.00006,16.0 C34.00006,16.0 34.00006,4.0 34.00006,4.0 C34.00006,4.0 42.00006,4.0 42.00006,4.0 C42.00006,4.0 42.00006,16.0 42.00006,16.0 C42.00006,16.0 44.0,16.0 44.0,16.0 C44.0,16.0 44.0,4.0 44.0,4.0 C44.0,4.0 51.00006,4.0 51.00006,4.0 C51.00006,4.0 51.00006,21.0 51.00006,21.0 C51.00006,21.0 55.00006,21.0 55.00006,21.0 C55.00006,21.0 55.00006,4.0 55.00006,4.0 C55.00006,4.0 62.00006,4.0 62.00006,4.0 C62.00006,4.0 62.00006,16.0 62.00006,16.0 C62.00006,16.0 64.0,16.0 64.0,16.0 C64.0,16.0 64.0,4.0 64.0,4.0 C64.0,4.0 72.00006,4.0 72.00006,4.0 C72.00006,4.0 72.00006,16.0 72.00006,16.0 C72.00006,16.0 74.0,16.0 74.0,16.0 C74.0,16.0 74.0,4.0 74.0,4.0 C74.0,4.0 82.00006,4.0 82.00006,4.0 C82.00006,4.0 82.00006,16.0 82.00006,16.0 C82.00006,16.0 84.00006,16.0 84.00006,16.0 C84.00006,16.0 84.00006,4.0 84.00006,4.0 C84.00006,4.0 92.00006,4.0 92.00006,4.0 C92.00006,4.0 92.00006,16.0 92.00006,16.0 C92.00006,16.0 94.00006,16.0 94.00006,16.0 C94.00006,16.0 94.00006,4.0 94.00006,4.0 C94.00006,4.0 101.0,4.0 101.0,4.0 C101.0,4.0 101.0,21.0 101.0,21.0 C101.0,21.0 105.00006,21.0 105.00006,21.0 C105.00006,21.0 105.00006,4.0 105.00006,4.0 C105.00006,4.0 112.0,4.0 112.0,4.0 C112.0,4.0 112.0,16.0 112.0,16.0 C112.0,16.0 114.00006,16.0 114.00006,16.0 C114.00006,16.0 114.00006,4.0 114.00006,4.0 C114.00006,4.0 122.0,4.0 122.0,4.0 C122.0,4.0 122.0,16.0 122.0,16.0 C122.0,16.0 124.00006,16.0 124.00006,16.0 C124.00006,16.0 124.00006,4.0 124.00006,4.0 C124.00006,4.0 132.0,4.0 132.0,4.0 C132.0,4.0 132.0,16.0 132.0,16.0 C132.0,16.0 134.00006,16.0 134.00006,16.0 C134.00006,16.0 134.00006,4.0 134.00006,4.0 C134.00006,4.0 142.00006,4.0 142.00006,4.0 C142.00006,4.0 142.00006,16.0 142.00006,16.0 C142.00006,16.0 144.0,16.0 144.0,16.0 C144.0,16.0 144.0,4.0 144.0,4.0 C144.0,4.0 151.00006,4.0 151.00006,4.0 C151.00006,4.0 151.00006,21.0 151.00006,21.0 C151.00006,21.0 155.00006,21.0 155.00006,21.0 C155.00006,21.0 155.00006,4.0 155.00006,4.0 C155.00006,4.0 162.00006,4.0 162.00006,4.0 C162.00006,4.0 162.00006,16.0 162.00006,16.0 C162.00006,16.0 164.0,16.0 164.0,16.0 C164.0,16.0 164.0,4.0 164.0,4.0 C164.0,4.0 172.00006,4.0 172.00006,4.0 C172.00006,4.0 172.00006,16.0 172.00006,16.0 C172.00006,16.0 174.00009,16.0 174.00009,16.0 C174.00009,16.0 174.00009,4.0 174.00009,4.0 C174.00009,4.0 182.00003,4.0 182.00003,4.0 C182.00003,4.0 182.00003,16.0 182.00003,16.0 C182.00003,16.0 184.00006,16.0 184.00006,16.0 C184.00006,16.0 184.00006,4.0 184.00006,4.0 C184.00006,4.0 192.00003,4.0 192.00003,4.0 C192.00003,4.0 192.00003,16.0 192.00003,16.0 C192.00003,16.0 194.00006,16.0 194.00006,16.0 C194.00006,16.0 194.00006,4.0 194.00006,4.0 C194.00006,4.0 201.0,4.0 201.0,4.0 C201.0,4.0 201.0,21.0 201.0,21.0 C201.0,21.0 205.00006,21.0 205.00006,21.0 C205.00006,21.0 205.00006,4.0 205.00006,4.0 C205.00006,4.0 212.0,4.0 212.0,4.0 C212.0,4.0 212.0,16.0 212.0,16.0 C212.0,16.0 214.00006,16.0 214.00006,16.0 C214.00006,16.0 214.00006,4.0 214.00006,4.0 C214.00006,4.0 222.0,4.0 222.0,4.0 C222.0,4.0 222.0,16.0 222.0,16.0 C222.0,16.0 224.00003,16.0 224.00003,16.0 C224.00003,16.0 224.00003,4.0 224.00003,4.0 C224.00003,4.0 232.00009,4.0 232.00009,4.0 C232.00009,4.0 232.00009,16.0 232.00009,16.0 C232.00009,16.0 234.00003,16.0 234.00003,16.0 C234.00003,16.0 234.00003,4.0 234.00003,4.0 C234.00003,4.0 242.00006,4.0 242.00006,4.0 C242.00006,4.0 242.00006,16.0 242.00006,16.0 C242.00006,16.0 244.00003,16.0 244.00003,16.0 C244.00003,16.0 244.00003,4.0 244.00003,4.0 C244.00003,4.0 251.00006,4.0 251.00006,4.0 C251.00006,4.0 251.00006,21.0 251.00006,21.0 C251.00006,21.0 255.00003,21.0 255.00003,21.0 C255.00003,21.0 255.00003,4.0 255.00003,4.0 C255.00003,4.0 262.00006,4.0 262.00006,4.0 C262.00006,4.0 262.00006,16.0 262.00006,16.0 C262.00006,16.0 264.0001,16.0 264.0001,16.0 C264.0001,16.0 264.0001,4.0 264.0001,4.0 C264.0001,4.0 272.00003,4.0 272.00003,4.0 C272.00003,4.0 272.00003,16.0 272.00003,16.0 C272.00003,16.0 274.0001,16.0 274.0001,16.0 C274.0001,16.0 274.0001,4.0 274.0001,4.0 C274.0001,4.0 282.00003,4.0 282.00003,4.0 C282.00003,4.0 282.00003,16.0 282.00003,16.0 C282.00003,16.0 284.00006,16.0 284.00006,16.0 C284.00006,16.0 284.00006,4.0 284.00006,4.0 C284.00006,4.0 292.00003,4.0 292.00003,4.0 C292.00003,4.0 292.00003,16.0 292.00003,16.0 C292.00003,16.0 294.00006,16.0 294.00006,16.0 C294.00006,16.0 294.00006,4.0 294.00006,4.0 C294.00006,4.0 301.0,4.0 301.0,4.0 C301.0,4.0 301.0,21.0 301.0,21.0 C301.0,21.0 305.00006,21.0 305.00006,21.0 C305.00006,21.0 305.00006,4.0 305.00006,4.0 C305.00006,4.0 312.0,4.0 312.0,4.0 C312.0,4.0 312.0,16.0 312.0,16.0 C312.0,16.0 314.00003,16.0 314.00003,16.0 C314.00003,16.0 314.00003,4.0 314.00003,4.0 C314.00003,4.0 322.0001,4.0 322.0001,4.0 C322.0001,4.0 322.0001,16.0 322.0001,16.0 C322.0001,16.0 324.00003,16.0 324.00003,16.0 C324.00003,16.0 324.00003,4.0 324.00003,4.0 C324.00003,4.0 332.0001,4.0 332.0001,4.0 C332.0001,4.0 332.0001,16.0 332.0001,16.0 C332.0001,16.0 334.00003,16.0 334.00003,16.0 C334.00003,16.0 334.00003,4.0 334.00003,4.0 C334.00003,4.0 342.00006,4.0 342.00006,4.0 C342.00006,4.0 342.00006,16.0 342.00006,16.0 C342.00006,16.0 344.0,16.0 344.0,16.0 C344.0,16.0 344.0,4.0 344.0,4.0 C344.0,4.0 351.00003,4.0 351.00003,4.0 C351.00003,4.0 351.00003,21.0 351.00003,21.0 C351.00003,21.0 355.00003,21.0 355.00003,21.0 C355.00003,21.0 355.00003,4.0 355.00003,4.0 C355.00003,4.0 362.00006,4.0 362.00006,4.0 C362.00006,4.0 362.00006,16.0 362.00006,16.0 C362.00006,16.0 364.0001,16.0 364.0001,16.0 C364.0001,16.0 364.0001,4.0 364.0001,4.0 C364.0001,4.0 372.00003,4.0 372.00003,4.0 C372.00003,4.0 372.00003,16.0 372.00003,16.0 C372.00003,16.0 374.00006,16.0 374.00006,16.0 C374.00006,16.0 374.00006,4.0 374.00006,4.0 C374.00006,4.0 382.00003,4.0 382.00003,4.0 C382.00003,4.0 382.00003,16.0 382.00003,16.0 C382.00003,16.0 384.00006,16.0 384.00006,16.0 C384.00006,16.0 384.00006,4.0 384.00006,4.0 C384.00006,4.0 392.00003,4.0 392.00003,4.0 C392.00003,4.0 392.00003,16.0 392.00003,16.0 C392.00003,16.0 394.00006,16.0 394.00006,16.0 C394.00006,16.0 394.00006,4.0 394.00006,4.0 C394.00006,4.0 401.0001,4.0 401.0001,4.0 C401.0001,4.0 401.0001,21.0 401.0001,21.0 C401.0001,21.0 405.00006,21.0 405.00006,21.0 C405.00006,21.0 405.00006,4.0 405.00006,4.0 C405.00006,4.0 412.0,4.0 412.0,4.0 C412.0,4.0 412.0,16.0 412.0,16.0 C412.0,16.0 414.00003,16.0 414.00003,16.0 C414.00003,16.0 414.00003,4.0 414.00003,4.0 C414.00003,4.0 422.00006,4.0 422.00006,4.0 C422.00006,4.0 422.00006,16.0 422.00006,16.0 C422.00006,16.0 424.00003,16.0 424.00003,16.0 C424.00003,16.0 424.00003,4.0 424.00003,4.0 C424.00003,4.0 432.00006,4.0 432.00006,4.0 C432.00006,4.0 432.00006,16.0 432.00006,16.0 C432.00006,16.0 434.0,16.0 434.0,16.0 C434.0,16.0 434.0,4.0 434.0,4.0 C434.0,4.0 442.00006,4.0 442.00006,4.0 C442.00006,4.0 442.00006,16.0 442.00006,16.0 C442.00006,16.0 444.0,16.0 444.0,16.0 C444.0,16.0 444.0,4.0 444.0,4.0 C444.0,4.0 451.00003,4.0 451.00003,4.0 C451.00003,4.0 451.00003,21.0 451.00003,21.0 C451.00003,21.0 455.0,21.0 455.0,21.0 C455.0,21.0 455.0,4.0 455.0,4.0 C455.0,4.0 462.00006,4.0 462.00006,4.0 C462.00006,4.0 462.00006,16.0 462.00006,16.0 C462.00006,16.0 464.00006,16.0 464.00006,16.0 C464.00006,16.0 464.00006,4.0 464.00006,4.0 C464.00006,4.0 472.00003,4.0 472.00003,4.0 C472.00003,4.0 472.00003,16.0 472.00003,16.0 C472.00003,16.0 474.00006,16.0 474.00006,16.0 C474.00006,16.0 474.00006,4.0 474.00006,4.0 C474.00006,4.0 482.00003,4.0 482.00003,4.0 C482.00003,4.0 482.00003,16.0 482.00003,16.0 C482.00003,16.0 484.00006,16.0 484.00006,16.0 C484.00006,16.0 484.00006,4.0 484.00006,4.0 C484.00006,4.0 492.0,4.0 492.0,4.0 C492.0,4.0 492.0,16.0 492.0,16.0 C492.0,16.0 494.00006,16.0 494.00006,16.0 C494.00006,16.0 494.00006,4.0 494.00006,4.0 C494.00006,4.0 501.00006,4.0 501.00006,4.0 C501.00006,4.0 501.00006,21.0 501.00006,21.0 C501.00006,21.0 505.00006,21.0 505.00006,21.0 C505.00006,21.0 505.00006,4.0 505.00006,4.0 C505.00006,4.0 512.0001,4.0 512.0001,4.0 C512.0001,4.0 512.0001,16.0 512.0001,16.0 C512.0001,16.0 514.0,16.0 514.0,16.0 C514.0,16.0 514.0,4.0 514.0,4.0 C514.0,4.0 522.00006,4.0 522.00006,4.0 C522.00006,4.0 522.00006,16.0 522.00006,16.0 C522.00006,16.0 524.0,16.0 524.0,16.0 C524.0,16.0 524.0,4.0 524.0,4.0 C524.0,4.0 532.00006,4.0 532.00006,4.0 C532.00006,4.0 532.00006,16.0 532.00006,16.0 C532.00006,16.0 534.0,16.0 534.0,16.0 C534.0,16.0 534.0,4.0 534.0,4.0 C534.0,4.0 542.00006,4.0 542.00006,4.0 C542.00006,4.0 542.00006,16.0 542.00006,16.0 C542.00006,16.0 544.0,16.0 544.0,16.0 C544.0,16.0 544.0,4.0 544.0,4.0 C544.0,4.0 551.0,4.0 551.0,4.0 C551.0,4.0 551.0,21.0 551.0,21.0 C551.0,21.0 555.0,21.0 555.0,21.0 C555.0,21.0 555.0,4.0 555.0,4.0 C555.0,4.0 562.00006,4.0 562.00006,4.0 C562.00006,4.0 562.00006,16.0 562.00006,16.0 C562.00006,16.0 564.00006,16.0 564.00006,16.0 C564.00006,16.0 564.00006,4.0 564.00006,4.0 C564.00006,4.0 572.0,4.0 572.0,4.0 C572.0,4.0 572.0,16.0 572.0,16.0 C572.0,16.0 574.00006,16.0 574.00006,16.0 C574.00006,16.0 574.00006,4.0 574.00006,4.0 C574.00006,4.0 582.0,4.0 582.0,4.0 C582.0,4.0 582.0,16.0 582.0,16.0 C582.0,16.0 584.00006,16.0 584.00006,16.0 C584.00006,16.0 584.00006,4.0 584.00006,4.0 C584.00006,4.0 592.0,4.0 592.0,4.0 C592.0,4.0 592.0,16.0 592.0,16.0 C592.0,16.0 594.00006,16.0 594.00006,16.0 C594.00006,16.0 594.00006,4.0 594.00006,4.0 C594.00006,4.0 601.00006,4.0 601.00006,4.0 C601.00006,4.0 601.00006,21.0 601.00006,21.0 C601.00006,21.0 605.00006,21.0 605.00006,21.0 C605.00006,21.0 605.00006,4.0 605.00006,4.0 C605.00006,4.0 612.00006,4.0 612.00006,4.0 C612.00006,4.0 612.00006,16.0 612.00006,16.0 C612.00006,16.0 614.0,16.0 614.0,16.0 C614.0,16.0 614.0,4.0 614.0,4.0 C614.0,4.0 622.00006,4.0 622.00006,4.0 C622.00006,4.0 622.00006,16.0 622.00006,16.0 C622.00006,16.0 624.0,16.0 624.0,16.0 C624.0,16.0 624.0,4.0 624.0,4.0 C624.0,4.0 632.00006,4.0 632.00006,4.0 C632.00006,4.0 632.00006,16.0 632.00006,16.0 C632.00006,16.0 634.0,16.0 634.0,16.0 C634.0,16.0 634.0,4.0 634.0,4.0 C634.0,4.0 642.00006,4.0 642.00006,4.0 C642.00006,4.0 642.00006,16.0 642.00006,16.0 C642.00006,16.0 644.00006,16.0 644.00006,16.0 C644.00006,16.0 644.00006,4.0 644.00006,4.0 C644.00006,4.0 651.0,4.0 651.0,4.0 C651.0,4.0 651.0,21.0 651.0,21.0 C651.0,21.0 655.0,21.0 655.0,21.0 C655.0,21.0 655.0,4.0 655.0,4.0 C655.0,4.0 662.00006,4.0 662.00006,4.0 C662.00006,4.0 662.00006,16.0 662.00006,16.0 C662.00006,16.0 664.00006,16.0 664.00006,16.0 C664.00006,16.0 664.00006,4.0 664.00006,4.0 C664.00006,4.0 672.0,4.0 672.0,4.0 C672.0,4.0 672.0,16.0 672.0,16.0 C672.0,16.0 674.00006,16.0 674.00006,16.0 C674.00006,16.0 674.00006,4.0 674.00006,4.0 C674.00006,4.0 681.99994,4.0 681.99994,4.0 C681.99994,4.0 681.99994,16.0 681.99994,16.0 C681.99994,16.0 683.99994,16.0 683.99994,16.0 C683.99994,16.0 683.99994,4.0 683.99994,4.0 C683.99994,4.0 691.99994,4.0 691.99994,4.0 C691.99994,4.0 691.99994,16.0 691.99994,16.0 C691.99994,16.0 693.99994,16.0 693.99994,16.0 C693.99994,16.0 693.99994,4.0 693.99994,4.0 C693.99994,4.0 701.0,4.0 701.0,4.0 C701.0,4.0 701.0,21.0 701.0,21.0 C701.0,21.0 704.99994,21.0 704.99994,21.0 C704.99994,21.0 704.99994,4.0 704.99994,4.0 C704.99994,4.0 712.0,4.0 712.0,4.0 C712.0,4.0 712.0,16.0 712.0,16.0 C712.0,16.0 713.99994,16.0 713.99994,16.0 C713.99994,16.0 713.99994,4.0 713.99994,4.0 C713.99994,4.0 722.0,4.0 722.0,4.0 C722.0,4.0 722.0,16.0 722.0,16.0 C722.0,16.0 723.99994,16.0 723.99994,16.0 C723.99994,16.0 723.99994,4.0 723.99994,4.0 C723.99994,4.0 731.99994,4.0 731.99994,4.0 C731.99994,4.0 731.99994,16.0 731.99994,16.0 C731.99994,16.0 734.0,16.0 734.0,16.0 C734.0,16.0 734.0,4.0 734.0,4.0 C734.0,4.0 741.99994,4.0 741.99994,4.0 C741.99994,4.0 741.99994,16.0 741.99994,16.0 C741.99994,16.0 744.0,16.0 744.0,16.0 C744.0,16.0 744.0,4.0 744.0,4.0 C744.0,4.0 750.99994,4.0 750.99994,4.0 C750.99994,4.0 750.99994,21.0 750.99994,21.0 C750.99994,21.0 755.0,21.0 755.0,21.0 C755.0,21.0 755.0,4.0 755.0,4.0 C755.0,4.0 761.99994,4.0 761.99994,4.0 C761.99994,4.0 761.99994,16.0 761.99994,16.0 C761.99994,16.0 764.0,16.0 764.0,16.0 C764.0,16.0 764.0,4.0 764.0,4.0 C764.0,4.0 771.99994,4.0 771.99994,4.0 C771.99994,4.0 771.99994,16.0 771.99994,16.0 C771.99994,16.0 773.99994,16.0 773.99994,16.0 C773.99994,16.0 773.99994,4.0 773.99994,4.0 C773.99994,4.0 781.99994,4.0 781.99994,4.0 C781.99994,4.0 781.99994,16.0 781.99994,16.0 C781.99994,16.0 783.99994,16.0 783.99994,16.0 C783.99994,16.0 783.99994,4.0 783.99994,4.0 C783.99994,4.0 792.0,4.0 792.0,4.0 C792.0,4.0 792.0,16.0 792.0,16.0 C792.0,16.0 793.99994,16.0 793.99994,16.0 C793.99994,16.0 793.99994,4.0 793.99994,4.0 C793.99994,4.0 801.0,4.0 801.0,4.0 C801.0,4.0 801.0,21.0 801.0,21.0 C801.0,21.0 804.99994,21.0 804.99994,21.0 C804.99994,21.0 804.99994,4.0 804.99994,4.0 C804.99994,4.0 812.0,4.0 812.0,4.0 C812.0,4.0 812.0,16.0 812.0,16.0 C812.0,16.0 813.99994,16.0 813.99994,16.0 C813.99994,16.0 813.99994,4.0 813.99994,4.0 C813.99994,4.0 822.0,4.0 822.0,4.0 C822.0,4.0 822.0,16.0 822.0,16.0 C822.0,16.0 823.9999,16.0 823.9999,16.0 C823.9999,16.0 823.9999,4.0 823.9999,4.0 C823.9999,4.0 831.99994,4.0 831.99994,4.0 C831.99994,4.0 831.99994,16.0 831.99994,16.0 C831.99994,16.0 834.0,16.0 834.0,16.0 C834.0,16.0 834.0,4.0 834.0,4.0 C834.0,4.0 841.99994,4.0 841.99994,4.0 C841.99994,4.0 841.99994,16.0 841.99994,16.0 C841.99994,16.0 844.0,16.0 844.0,16.0 C844.0,16.0 844.0,4.0 844.0,4.0 C844.0,4.0 850.99994,4.0 850.99994,4.0 C850.99994,4.0 850.99994,21.0 850.99994,21.0 C850.99994,21.0 855.0,21.0 855.0,21.0 C855.0,21.0 855.0,4.0 855.0,4.0 C855.0,4.0 861.99994,4.0 861.99994,4.0 C861.99994,4.0 861.99994,16.0 861.99994,16.0 C861.99994,16.0 864.0,16.0 864.0,16.0 C864.0,16.0 864.0,4.0 864.0,4.0 C864.0,4.0 871.99994,4.0 871.99994,4.0 C871.99994,4.0 871.99994,16.0 871.99994,16.0 C871.99994,16.0 873.99994,16.0 873.99994,16.0 C873.99994,16.0 873.99994,4.0 873.99994,4.0 C873.99994,4.0 881.9999,4.0 881.9999,4.0 C881.9999,4.0 881.9999,16.0 881.9999,16.0 C881.9999,16.0 883.99994,16.0 883.99994,16.0 C883.99994,16.0 883.99994,4.0 883.99994,4.0 C883.99994,4.0 892.0,4.0 892.0,4.0 C892.0,4.0 892.0,16.0 892.0,16.0 C892.0,16.0 893.99994,16.0 893.99994,16.0 C893.99994,16.0 893.99994,4.0 893.99994,4.0 C893.99994,4.0 901.0,4.0 901.0,4.0 C901.0,4.0 901.0,21.0 901.0,21.0 C901.0,21.0 904.99994,21.0 904.99994,21.0 C904.99994,21.0 904.99994,4.0 904.99994,4.0 C904.99994,4.0 912.0,4.0 912.0,4.0 C912.0,4.0 912.0,16.0 912.0,16.0 C912.0,16.0 913.9999,16.0 913.9999,16.0 C913.9999,16.0 913.9999,4.0 913.9999,4.0 C913.9999,4.0 922.0,4.0 922.0,4.0 C922.0,4.0 922.0,16.0 922.0,16.0 C922.0,16.0 924.0,16.0 924.0,16.0 C924.0,16.0 924.0,4.0 924.0,4.0 C924.0,4.0 931.99994,4.0 931.99994,4.0 C931.99994,4.0 931.99994,16.0 931.99994,16.0 C931.99994,16.0 934.0,16.0 934.0,16.0 C934.0,16.0 934.0,4.0 934.0,4.0 C934.0,4.0 941.99994,4.0 941.99994,4.0 C941.99994,4.0 941.99994,16.0 941.99994,16.0 C941.99994,16.0 944.0,16.0 944.0,16.0 C944.0,16.0 944.0,4.0 944.0,4.0 C944.0,4.0 950.9999,4.0 950.9999,4.0 Z"/>
</svg>